<svg id="chorus" xmlns="http://www.w3.org/2000/svg" viewBox="0 0 156.22 171.32"><defs><style>.cls-1{fill:#3d3b3f;}</style></defs><title>chorus</title><path class="cls-1" d="M96.85,66.68H51.51A12.24,12.24,0,0,0,39.29,78.89v45.39A12.24,12.24,0,0,0,51.51,136.5H96.85a12.24,12.24,0,0,0,12.22-12.22V78.95A12.21,12.21,0,0,0,96.85,66.68Z" transform="translate(-21.97 -18.24)"/><path class="cls-1" d="M52.38,84.11H28.49A6.54,6.54,0,0,1,22,77.59V53.7a6.54,6.54,0,0,1,6.52-6.52H52.38A6.54,6.54,0,0,1,58.9,53.7V77.59A6.54,6.54,0,0,1,52.38,84.11Z" transform="translate(-21.97 -18.24)"/><path class="cls-1" d="M134.75,55.16H110.86a6.54,6.54,0,0,1-6.52-6.52V24.76a6.54,6.54,0,0,1,6.52-6.52h23.89a6.54,6.54,0,0,1,6.52,6.52V48.65A6.54,6.54,0,0,1,134.75,55.16Z" transform="translate(-21.97 -18.24)"/><path class="cls-1" d="M104.35,42.95s3.48,22.7-16.67,23.73l21.39,18.08s-2.17-29.59,13.74-29.59" transform="translate(-21.97 -18.24)"/><path class="cls-1" d="M166,152.63H153.54a13.12,13.12,0,0,0-2.55.27c-5,.22-15.64-.92-16.13-14.93V113.86a12.24,12.24,0,0,0-12.22-12.22H96.91a12.24,12.24,0,0,0-12.22,12.22V139.6a12.24,12.24,0,0,0,12.22,12.22h20.8c8.91.49,23.19,3.1,23.62,14.93v10.59a12.24,12.24,0,0,0,12.22,12.22H166a12.24,12.24,0,0,0,12.22-12.22V164.9A12.21,12.21,0,0,0,166,152.63Z" transform="translate(-21.97 -18.24)"/></svg>