<svg id="confidentiality" xmlns="http://www.w3.org/2000/svg" viewBox="0 0 233.42 233.32"><defs><style>.cls-1{fill:#eee9e7;}.cls-2{fill:#3d3b3f;}</style></defs><title>confidentiality</title><path class="cls-1" d="M189.08,104h26.35v30.12H189.08Z" transform="translate(-30.95 -25.07)"/><path class="cls-1" d="M79.89,104h26.35v30.12H79.89Z" transform="translate(-30.95 -25.07)"/><path class="cls-2" d="M147.66,107.79a33.92,33.92,0,0,0-33.88,33.88v22h7.53v-22a26.35,26.35,0,1,1,52.71,0v22h7.53v-22A33.92,33.92,0,0,0,147.66,107.79Z" transform="translate(-30.95 -25.07)"/><path class="cls-2" d="M230.49,99.84V55.08H184.14L156.75,28.64a13.35,13.35,0,0,0-18.17,0L111.19,55.08H64.84V99.84L31,132.55V258.39H264.37V132.55ZM181.26,202.67l-3.86,6.45,69.65,41.79H48.32L118,209.12l-3.86-6.45L38.48,248V141.35l69.84,48.38,4.28-6.21L72.36,155.65V92.73H223v62.87l-40,27.72,4.28,6.21,69.65-48.19V248Zm73.42-69-24.19,16.75v-40.1ZM143.8,34.1a5.66,5.66,0,0,1,7.72,0l21.79,21H122ZM223,62.61V85.2H72.36V62.61ZM64.84,150.43,40.65,133.68l24.19-23.34Z" transform="translate(-30.95 -25.07)"/><path class="cls-2" d="M79.89,70.14h7.53v7.53H79.89Z" transform="translate(-30.95 -25.07)"/><path class="cls-2" d="M95,70.14h7.53v7.53H95Z" transform="translate(-30.95 -25.07)"/><path class="cls-2" d="M110,70.14h7.53v7.53H110Z" transform="translate(-30.95 -25.07)"/><path class="cls-2" d="M147.66,122.85a18.82,18.82,0,0,0-18.82,18.82v16.75h7.53V141.68a11.29,11.29,0,1,1,22.59,0v16.75h7.53V141.68A18.85,18.85,0,0,0,147.66,122.85Z" transform="translate(-30.95 -25.07)"/><path class="cls-2" d="M79.89,100.26h26.35v7.53H79.89Z" transform="translate(-30.95 -25.07)"/><path class="cls-2" d="M79.89,115.32h26.35v7.53H79.89Z" transform="translate(-30.95 -25.07)"/><path class="cls-2" d="M79.89,130.38h26.35v7.53H79.89Z" transform="translate(-30.95 -25.07)"/><path class="cls-2" d="M189.08,100.26h26.35v7.53H189.08Z" transform="translate(-30.95 -25.07)"/><path class="cls-2" d="M189.08,115.32h26.35v7.53H189.08Z" transform="translate(-30.95 -25.07)"/><path class="cls-2" d="M189.08,130.38h26.35v7.53H189.08Z" transform="translate(-30.95 -25.07)"/><path class="cls-1" d="M147.66,236l-1.08-.33a56.25,56.25,0,0,1-40.33-54.21V166.15l1.51-1.13a72.12,72.12,0,0,1,79.82,0l1.51,1.13v15.29a56.25,56.25,0,0,1-40.33,54.21Z" transform="translate(-30.95 -25.07)"/><path class="cls-2" d="M162.72,183.09a15.06,15.06,0,1,0-18.82,14.54v23.11h7.53V197.63A15,15,0,0,0,162.72,183.09Zm-15.06,7.53a7.53,7.53,0,1,1,7.53-7.53A7.55,7.55,0,0,1,147.66,190.62Z" transform="translate(-30.95 -25.07)"/></svg>