<svg id="embauche" xmlns="http://www.w3.org/2000/svg" viewBox="0 0 226.44 241.39"><defs><style>.cls-1{fill:#eee9e7;}.cls-2{fill:#3d3b3f;}</style></defs><title>embeauche</title><path class="cls-1" d="M187.56,195H133.46a4.76,4.76,0,0,0,0,9.52H187.6a4.75,4.75,0,0,0,4.76-4.76A4.82,4.82,0,0,0,187.56,195Z" transform="translate(-59.39 -21.03)"/><path class="cls-1" d="M108.11,224.07a4.75,4.75,0,0,0,4.76,4.76h26.48a4.76,4.76,0,0,0,0-9.52H112.87A4.75,4.75,0,0,0,108.11,224.07Z" transform="translate(-59.39 -21.03)"/><path class="cls-1" d="M176.91,224.07a4.75,4.75,0,0,0,4.76,4.76h26.48a4.76,4.76,0,1,0,0-9.52H181.67A4.75,4.75,0,0,0,176.91,224.07Z" transform="translate(-59.39 -21.03)"/><path class="cls-1" d="M160.46,219.31a4.76,4.76,0,0,0,0,9.52h.09a4.76,4.76,0,0,0,0-9.52Z" transform="translate(-59.39 -21.03)"/><path class="cls-1" d="M64.15,99.58a4.75,4.75,0,0,0,4.76-4.76v-.09a4.76,4.76,0,1,0-9.52,0v.09A4.75,4.75,0,0,0,64.15,99.58Z" transform="translate(-59.39 -21.03)"/><path class="cls-2" d="M280.24,208.33,258.94,187V66.36a.28.28,0,0,0,0-.19.35.35,0,0,0,0-.24c0-.09,0-.14,0-.24s0-.14,0-.19,0-.14-.09-.24,0-.14,0-.19,0-.14-.09-.24,0-.14-.09-.19a496471.69,496471.69,0,0,0-.19-.38s-.09-.14-.14-.19S258,64,258,63.91l-.14-.14a0,0,0,0,0,0,0l-35.34-41-.09-.09c0-.09-.14-.14-.19-.24l-.14-.14c-.09,0-.14-.14-.24-.19l-.14-.14a.83.83,0,0,1-.24-.19s-.09,0-.14-.09l-.28-.14s-.09,0-.14,0l-.33-.14s-.09,0-.14,0a1.11,1.11,0,0,0-.38-.09s-.09,0-.09,0a1.17,1.17,0,0,0-.38,0h-.09c-.19,0-.33,0-.52,0H80.64a21.25,21.25,0,0,0-21.2,21.25V73.53a4.76,4.76,0,0,0,9.52,0V42.38A11.76,11.76,0,0,1,80.69,30.65H214.18V61.23a10.42,10.42,0,0,0,10.41,10.41h24.83V177.56L239,167.15l-.09-.09-.09-.09-22.33-22.38a63.14,63.14,0,1,0-102.15,13.85,6.07,6.07,0,0,0,.75.8,63.1,63.1,0,0,0,74.64,12.16l22.38,22.38.09.09.09.09,37.18,37.22v10A11.76,11.76,0,0,1,237.74,253H80.64a11.76,11.76,0,0,1-11.73-11.73V115.93a4.76,4.76,0,1,0-9.52,0V241.17a21.25,21.25,0,0,0,21.2,21.25H237.69a21.25,21.25,0,0,0,21.2-21.25v-2a17.08,17.08,0,0,0,7.77,1.93,18.82,18.82,0,0,0,13.1-5.65c6.74-6.69,9.14-18.47.47-27.14ZM223.6,61.23V38.66l20.21,23.47H224.5A.93.93,0,0,1,223.6,61.23Zm-63.09.47a53.63,53.63,0,0,1,46.41,80.57,4.71,4.71,0,0,0-.8,1.32c-.94,1.51-1.93,3-3,4.38a49.58,49.58,0,0,0-25.73-22.57,28.18,28.18,0,1,0-35.24,0,50.27,50.27,0,0,0-10.65,5.65,49.1,49.1,0,0,0-14.42,15.78A53.64,53.64,0,0,1,160.51,61.7ZM141.1,103.4A18.71,18.71,0,1,1,159.8,122.1,18.72,18.72,0,0,1,141.1,103.4Zm-17.34,51a39.78,39.78,0,0,1,72.42.94,51.73,51.73,0,0,1-7.49,5.61,5.49,5.49,0,0,0-1.32.8,53.46,53.46,0,0,1-63.61-7.35Zm81,6a3.62,3.62,0,0,0,.85-.85,64.83,64.83,0,0,0,5.75-6.74l17.58,17.58L215.5,183.74,198,166.16a64.83,64.83,0,0,0,6.74-5.75Zm68.42,68.32c-3.06,3.06-8.06,4.57-13-.33l-37.93-38L235.62,177l15.17,15.17.19.19L273.59,215c4.81,4.9,2.36,10.88-.47,13.71Z" transform="translate(-59.39 -21.03)"/></svg>