<?xml version="1.0" encoding="utf-8"?>
<!-- Generator: Adobe Illustrator 21.1.0, SVG Export Plug-In . SVG Version: 6.00 Build 0)  -->
<svg version="1.1" id="Layer_1" xmlns="http://www.w3.org/2000/svg" xmlns:xlink="http://www.w3.org/1999/xlink" x="0px" y="0px"
	 viewBox="0 0 425.2 425.2" style="enable-background:new 0 0 425.2 425.2;" xml:space="preserve">
<style type="text/css">
	.st0{fill:#3D3B3F;}
</style>
<g>
	<path class="st0" d="M102.8,288.5c0-45.8,0-91.7,0-137.5c0-21.7,20.6-22.4,38.6-22.2c53.5,0.6,107.1-1.1,160.6,0
		c22.3,0.5,38.6,4.8,38.6,22.2c0,45.8,0,91.7,0,137.5c0,17.8-20.7,22.4-38.6,22.2c-53.5-0.6-160.6,0-160.6,0
		S102.8,313.2,102.8,288.5z M220.8,296.9c28.5,0,56.9,0,85.4,0c16.1,0,21.3-5.2,21.3-21c0-37.4,0-74.9,0-112.3
		c0-15.9-5.2-21.1-21.2-21.1c-56.3-0.1-112.6-0.1-168.9,0c-16.1,0-21.3,5.3-21.3,21c0,37.4,0,74.9,0,112.3c0,15.9,5.2,21,21.2,21.1
		C165.1,297,192.9,296.9,220.8,296.9z"/>
	<path class="st0" d="M242.9,227.3c-4.9,4.4-9.7,8.3-14.1,12.6c-4.7,4.5-8.9,4.7-13.6,0.1c-4.2-4.1-8.7-7.8-13.7-12.3
		C185,243,169,257.9,153,272.8c-3.2,3-5.9,6.7-9.6,8.7c-2.9,1.6-10.3,1.1-10.3,1.1s-1.8-7.6,1.6-10.8c16.5-15.5,32.9-30.9,49.4-46.3
		c2.2-2.1,4.6-4,7.5-6.5c-18.4-16.5-35.9-32.1-53.4-47.8c-1.8-1.7-4.5-3-5.3-5.1c-1.1-2.7-2-7.1-0.6-8.8c1.3-1.6,5.9-1.6,8.7-0.8
		c2.4,0.7,4.3,3.3,6.4,5.2c22.6,20.2,45.2,40.4,67.8,60.6c2,1.8,4.2,3.5,6.8,5.6c23.8-21.3,47.2-42.3,70.6-63.4
		c2.8-2.5,5.2-5.7,8.4-7.2c2.8-1.3,6.5-0.5,9.8-0.7c-0.4,3.5,0.4,8.3-1.5,10.3c-8,8.2-16.8,15.5-25.3,23.1
		c-10.1,9.1-20.2,18.2-30.2,27.2c5,5.3,9.4,10.7,14.4,15.5c13.3,12.9,26.9,25.6,40.3,38.4c3.6,3.4,2,11.5,2,11.5s-8.4,0.2-10.8-2
		c-16.7-15.2-32.9-30.9-49.3-46.4C248.1,232,245.6,229.8,242.9,227.3z"/>
</g>
</svg>
