<svg id="excel" xmlns="http://www.w3.org/2000/svg" viewBox="0 0 156.28 149.78"><defs><style>.cls-1{fill:#3d3b3f;}</style></defs><title>excel</title><path class="cls-1" d="M174.88,161.88H109.77a3.27,3.27,0,1,1,0-6.53h61.87V44.67H109.77a3.27,3.27,0,1,1,0-6.53h65.11a3.27,3.27,0,0,1,3.27,3.27V158.61A3.27,3.27,0,0,1,174.88,161.88Z" transform="translate(-21.86 -25.11)"/><path class="cls-1" d="M111.81,25.83a3.2,3.2,0,0,0-2.75-.64L24.39,44.73a3.27,3.27,0,0,0-2.53,3.21V158.61a3.22,3.22,0,0,0,2.75,3.21l84.64,13a3.27,3.27,0,0,0,3.72-2.72,2.63,2.63,0,0,0,0-.49V28.4A3.17,3.17,0,0,0,111.81,25.83Zm-25.3,98.53a3.26,3.26,0,0,1-1,4.49,3.53,3.53,0,0,1-1.74.46A3.21,3.21,0,0,1,81,127.78L67.46,106.14,53.94,127.78a3.3,3.3,0,0,1-2.78,1.53A3.22,3.22,0,0,1,47.93,126a3.37,3.37,0,0,1,.49-1.71L63.62,100l-15.2-24.3a3.26,3.26,0,0,1,5.4-3.63c0,.06.09.12.12.18L67.46,93.87,81,72.23a3.26,3.26,0,1,1,5.65,3.27.64.64,0,0,1-.12.18L71.31,100Z" transform="translate(-21.86 -25.11)"/><path class="cls-1" d="M135.8,161.88a3.27,3.27,0,0,1-3.27-3.27V41.4a3.27,3.27,0,0,1,6.53,0V158.61A3.27,3.27,0,0,1,135.8,161.88Z" transform="translate(-21.86 -25.11)"/><path class="cls-1" d="M174.88,142.34H109.77a3.27,3.27,0,1,1,0-6.53h65.11a3.27,3.27,0,0,1,0,6.53Z" transform="translate(-21.86 -25.11)"/><path class="cls-1" d="M174.88,122.81H109.77a3.27,3.27,0,1,1,0-6.53h65.11a3.27,3.27,0,0,1,0,6.53Z" transform="translate(-21.86 -25.11)"/><path class="cls-1" d="M174.88,103.27H109.77a3.27,3.27,0,1,1,0-6.53h65.11a3.27,3.27,0,1,1,0,6.53Z" transform="translate(-21.86 -25.11)"/><path class="cls-1" d="M174.88,83.74H109.77a3.27,3.27,0,1,1,0-6.53h65.11a3.27,3.27,0,1,1,0,6.53Z" transform="translate(-21.86 -25.11)"/><path class="cls-1" d="M174.88,64.2H109.77a3.27,3.27,0,1,1,0-6.53h65.11a3.27,3.27,0,1,1,0,6.53Z" transform="translate(-21.86 -25.11)"/></svg>