<?xml version="1.0" encoding="utf-8"?>
<!-- Generator: Adobe Illustrator 21.1.0, SVG Export Plug-In . SVG Version: 6.00 Build 0)  -->
<svg version="1.1" id="Layer_1" xmlns="http://www.w3.org/2000/svg" xmlns:xlink="http://www.w3.org/1999/xlink" x="0px" y="0px"
	 viewBox="0 0 425.2 425.2" style="enable-background:new 0 0 425.2 425.2;" xml:space="preserve">
<style type="text/css">
	.st0{fill:#3D3B3F;}
</style>
<g>
	<path class="st0" d="M279,86.5l0.8,48.2c0,0-7.2,0.7-23.5,1c-15.8,0.2-19,3.4-19.2,19.2c-0.1,7.2,0,14.3,0,22.6
		c11.6,0,22.4,0.3,33.2-0.1c7.5-0.3,10.9,2.3,10.6,10.2c-0.4,10.8-0.3,21.7,0,32.6c0.2,6.9-2.8,9.3-9.5,9.1
		c-10.8-0.3-21.6-0.1-33.6-0.1c-0.2,4-0.6,7.4-0.6,10.8c0,28.3-0.1,84.9-0.1,84.9v14.5h-53.2l0.1-12.3c0,0-0.1-57.2-0.1-85.8
		c0-3.6,0-7.1,0-12.2c-9.8,0-18.9-0.4-27.9,0.1c-7.6,0.4-10.9-2.2-10.6-10c0.4-10.8,0.2-21.7,0.1-32.5c-0.1-6.6,2.6-9.6,9.4-9.3
		c9.2,0.3,18.4,0.1,29,0.1c0-6.6,0-12.8,0-18.9c0-43.5,6.6-72,47.8-72C247.4,86.5,279,86.5,279,86.5z"/>
</g>
</svg>
