<svg id="flexibility" xmlns="http://www.w3.org/2000/svg" viewBox="0 0 225.23 240.86"><defs><style>.cls-1{fill:#3d3b3f;}.cls-2{fill:#eee9e7;}</style></defs><title>flexibility</title><path class="cls-1" d="M155.85,173.59a14.15,14.15,0,0,0,10.42-6l37.67-51.7c1.2-1.6.8-3.61-.4-5.21a4.2,4.2,0,0,0-5.21-.4l-51.7,37.67a15.54,15.54,0,0,0-6,10.42,14.47,14.47,0,0,0,4,11.22,13.91,13.91,0,0,0,10,4Zm-7.21-14.83a5.44,5.44,0,0,1,2.4-4.41l31.66-22.84-22.84,31.66a5.54,5.54,0,0,1-4.41,2.4c-2,0-3.61-.4-4.81-2C149,162.37,148.63,160.77,148.63,158.76Z" transform="translate(-36.42 -21.3)"/><path class="cls-1" d="M245.62,99.85h0a.39.39,0,0,0-.4-.4,109.62,109.62,0,0,0-14.43-19.24l8.42-8.42,5.61,5.61,16.83-16.83-16-17.63L228.79,59.77l5.61,5.61-8.82,8.82a109.62,109.62,0,0,0-19.24-14.43h-.4a104.7,104.7,0,0,0-41.28-13.63V41.34h6a10,10,0,1,0,0-20H134.61a10,10,0,1,0,0,20h6v4.81a122.71,122.71,0,0,0-12.82,2A4.4,4.4,0,0,0,124.59,53a4.4,4.4,0,0,0,4.81,3.21,93.2,93.2,0,0,1,11.22-2l4.41-.4a11.1,11.1,0,0,0,3.61-.4v8a4,4,0,0,0,8,0v-8a105.77,105.77,0,0,1,42.08,11.22l-4,6.81a4.06,4.06,0,0,0,1.6,5.61,3.61,3.61,0,0,0,2,.4,4.78,4.78,0,0,0,3.61-2l4-6.81A101.17,101.17,0,0,1,237.2,99.85l-6.81,4a4.44,4.44,0,0,0-1.6,5.61,4.21,4.21,0,0,0,3.61,2,3.61,3.61,0,0,0,2-.4l6.81-4a95.71,95.71,0,0,1,11.22,42.48h-8a4,4,0,0,0,0,8h8A107.67,107.67,0,0,1,241.21,200l-6.81-4a4.13,4.13,0,1,0-4,7.21l6.81,4a101.17,101.17,0,0,1-31.26,31.26l-4-6.81a4.13,4.13,0,1,0-7.21,4l4,6.81a94,94,0,0,1-42.08,11.22v-8a4,4,0,0,0-8,0v8a157.66,157.66,0,0,1-19.24-2.4,4.09,4.09,0,1,0-1.6,8,99.49,99.49,0,0,0,24.45,2.81h.4a103.66,103.66,0,0,0,52.9-14.43h.4a111.72,111.72,0,0,0,39.28-39.28l.4-.4v-.4a107.91,107.91,0,0,0,0-107.81Zm0-45.29,5.61,5.61-5.61,5.61L240,60.17Zm-97-9.22v-12h-14a2,2,0,0,1,0-4h36.07a2,2,0,0,1,0,4h-14v12h-8Z" transform="translate(-36.42 -21.3)"/><path class="cls-1" d="M116.57,77.41h-20a4,4,0,0,0,0,8h20a3.79,3.79,0,0,0,4-4A4,4,0,0,0,116.57,77.41Z" transform="translate(-36.42 -21.3)"/><path class="cls-2" d="M116.57,105.46H76.49a4,4,0,0,0,0,8h40.08a3.79,3.79,0,0,0,4-4A4,4,0,0,0,116.57,105.46Z" transform="translate(-36.42 -21.3)"/><path class="cls-1" d="M116.57,133.51H56.46a4,4,0,1,0,0,8h60.12a3.79,3.79,0,0,0,4-4A4,4,0,0,0,116.57,133.51Z" transform="translate(-36.42 -21.3)"/><path class="cls-2" d="M116.57,161.57H40.42a4,4,0,0,0,0,8h76.15a3.79,3.79,0,0,0,4-4A4,4,0,0,0,116.57,161.57Z" transform="translate(-36.42 -21.3)"/><path class="cls-1" d="M116.57,189.62H64.47a4,4,0,0,0,0,8h52.1a3.79,3.79,0,0,0,4-4A4,4,0,0,0,116.57,189.62Z" transform="translate(-36.42 -21.3)"/><path class="cls-2" d="M116.57,217.68H88.52a4,4,0,1,0,0,8h28.05a3.79,3.79,0,0,0,4-4A4,4,0,0,0,116.57,217.68Z" transform="translate(-36.42 -21.3)"/></svg>