<svg id="go7" xmlns="http://www.w3.org/2000/svg" viewBox="0 0 155.59 65.04"><defs><style>.cls-1{fill:#3d3b3f;}</style></defs><title>go7</title><path class="cls-1" d="M71,123.42c-5.65,6.07-12.09,9.06-19.39,9.06a25.44,25.44,0,0,1-11.83-2.77,31.55,31.55,0,0,1-9.37-7.3A35.25,35.25,0,0,1,24.15,112a32.23,32.23,0,0,1-2.29-12A33.57,33.57,0,0,1,24.1,87.73,33,33,0,0,1,30.27,77.5a28.06,28.06,0,0,1,9.43-7,27.1,27.1,0,0,1,11.88-2.61c6.18,0,11.24,1.28,15.23,3.89a25.1,25.1,0,0,1,9.11,10.07l-6.18,4.31a19.5,19.5,0,0,0-7.62-8.26,21.19,21.19,0,0,0-10.71-2.72,17.89,17.89,0,0,0-8.79,2.13,20.62,20.62,0,0,0-6.71,5.59,25.09,25.09,0,0,0-4.31,8,29.56,29.56,0,0,0-1.54,9.37,27.39,27.39,0,0,0,1.7,9.64,25.91,25.91,0,0,0,4.69,8,21.9,21.9,0,0,0,7,5.43,19.68,19.68,0,0,0,8.79,2c6.92,0,13.21-3.36,18.75-10.07v-8.79H57.28V100.3H77.84v31.8H71v-8.68Z" transform="translate(-21.86 -67.49)"/><path class="cls-1" d="M116.3,132.52A27.39,27.39,0,0,1,104,129.81a30.34,30.34,0,0,1-9.48-7.3,34.13,34.13,0,0,1-8.26-22.32A32.65,32.65,0,0,1,88.6,88a33.54,33.54,0,0,1,6.34-10.33,30.31,30.31,0,0,1,9.59-7.14,27.43,27.43,0,0,1,12-2.66,26.38,26.38,0,0,1,12.2,2.82,30.62,30.62,0,0,1,9.43,7.4,34.13,34.13,0,0,1,8.26,22.21,32.65,32.65,0,0,1-2.29,12.2,34.19,34.19,0,0,1-6.29,10.28,29.93,29.93,0,0,1-9.53,7.08A27.43,27.43,0,0,1,116.3,132.52ZM94.51,100.14a28,28,0,0,0,1.6,9.37,26.19,26.19,0,0,0,4.42,8,21.4,21.4,0,0,0,6.92,5.59,19.48,19.48,0,0,0,9,2.08,19.24,19.24,0,0,0,9.16-2.18,21.8,21.8,0,0,0,6.87-5.75,26.56,26.56,0,0,0,4.31-8,28.27,28.27,0,0,0-.11-18.43,25.43,25.43,0,0,0-4.47-8,23.21,23.21,0,0,0-6.92-5.54,18.82,18.82,0,0,0-8.84-2.08,19.21,19.21,0,0,0-9.16,2.13A21.48,21.48,0,0,0,100.43,83a26.41,26.41,0,0,0-4.37,8A27.36,27.36,0,0,0,94.51,100.14Z" transform="translate(-21.86 -67.49)"/><path class="cls-1" d="M171.22,71.11H154.81V67.49h22.64l-16,31.85h-4.47Z" transform="translate(-21.86 -67.49)"/></svg>