<svg id="internet" xmlns="http://www.w3.org/2000/svg" viewBox="0 0 154.21 156.23"><defs><style>.cls-1,.cls-2,.cls-3{fill:none;stroke:#3d3b3f;}.cls-1,.cls-3{stroke-linejoin:round;}.cls-1,.cls-2{stroke-width:6.37px;}.cls-2{stroke-miterlimit:10;}.cls-3{stroke-width:4.56px;}</style></defs><title>internet</title><path class="cls-1" d="M97.78,173.69V29.35S53.43,34,53.43,101.49,97.78,173.69,97.78,173.69Z" transform="translate(-22.45 -26.16)"/><line class="cls-2" x1="3.13" y1="75.33" x2="94.9" y2="75.33"/><line class="cls-2" x1="13.74" y1="37.72" x2="135.49" y2="37.72"/><line class="cls-2" x1="13.74" y1="112.99" x2="94.9" y2="112.99"/><path class="cls-2" d="M142.13,101.49c0,2.65-.05,5.2-.21,7.64l22.49,20.11A72.21,72.21,0,0,0,97.78,29.35S142.13,34,142.13,101.49Z" transform="translate(-22.45 -26.16)"/><path class="cls-2" d="M97.78,29.35a72.15,72.15,0,1,0,0,144.29Z" transform="translate(-22.45 -26.16)"/><path class="cls-2" d="M98.21,173.64a72,72,0,0,0,26.47-5.2V158.2C113.48,170.77,100.65,173.27,98.21,173.64Z" transform="translate(-22.45 -26.16)"/><polygon class="cls-3" points="114.8 97.5 114.8 146.47 124.77 136.71 133.47 153.95 143.81 148.96 136.23 131.35 151.93 130.71 114.8 97.5"/></svg>