<?xml version="1.0" encoding="utf-8"?>
<!-- Generator: Adobe Illustrator 21.1.0, SVG Export Plug-In . SVG Version: 6.00 Build 0)  -->
<svg version="1.1" id="Layer_1" xmlns="http://www.w3.org/2000/svg" xmlns:xlink="http://www.w3.org/1999/xlink" x="0px" y="0px"
	 viewBox="0 0 300 112" style="enable-background:new 0 0 300 112;" xml:space="preserve">
<style type="text/css">
	.st0{fill:#3D3B3F;}
</style>
<g>
	<path class="st0" d="M80,77.3c-0.3,0.9-0.9,1.8-1.7,2.5c-9.8,9.8-28.6-1.8-35.1-7c-1.8-1.5-4.4-3.8-7.2-6.3
		c-3.5,6.3-8.1,11.9-13.2,11.8C12,77.9,10.2,69,11.5,63.4c1.4-5.7,10.1-9,19.3-4c0.8,0.5,1.7,0.9,2.6,1.5c1.4-4.6,2.5-9.6,3.5-14.6
		c-4.4,2.9-8.3,5.5-10.4,7c-0.8,0.5-1.7-0.3-1.4-1.2c2.1-4.1,5.8-6.6,12.7-10c0.2-0.9,0.5-1.8,0.6-2.8c3.2-15.3,11.9-20.7,16.7-20.5
		c4.7,0.2,6.6,10.7-6,19.1c-1.1,0.8-2.1,1.5-3.2,2.1c-1.5,5.7-3.1,10.9-3.1,10.9s-2,6-5.2,12.3c8.1,5.1,17.3,11.3,24.5,13.8
		c9.3,3.1,16.5-4.4,17.8-2.8C80.6,75.3,80.5,76.4,80,77.3z M32.7,63.5c-6.6-5.2-13.6-9-16.4-2.5c-4.6,10.6,0.9,16.5,5.5,16.7H22
		C26.9,76.7,30.1,71,32.7,63.5z M48.9,28.7c-0.5,2.5-1.4,5.7-2.3,9c9.6-5.5,12.1-11.8,10.7-15C55.8,19.6,50.3,21.5,48.9,28.7z"/>
	<path class="st0" d="M72.8,61.1c-0.3,0.9-1.2,2.9-2.1,5.1c-0.5,0.9-0.9,1.8-1.4,2.8c-1.2,2.1-2.6,3.8-3.8,4.3
		c-0.2,0-0.3,0.2-0.5,0.2l0,0c-0.6,0.2-1.4,0-1.8-0.3c-0.3-0.2-0.5-0.3-0.8-0.6c0,0,0,0-0.2-0.2c-0.2-0.2-0.3-0.3-0.5-0.5
		c-0.2-0.2-0.3-0.3-0.5-0.5c-0.3-0.3-0.5-0.6-0.8-0.9c-0.6-0.9-1.1-1.8-1.2-2.5c-0.2-0.3-0.2-0.6-0.3-0.9c-0.3-0.9-0.5-2.1-0.6-3.2
		c-0.6-4.9-0.2-11,1.1-14.9c0.3-0.9,1.2-1.5,2.1-1.2c2.1,0.6,5.4,1.7,4.9,3.7c-0.6,2.3-2,6.7-1.7,12.6c0,0.9,0.2,2,0.3,3.1
		c0,0.2,0,0.2,0,0.3c0.2,1.4,0.3,2.5,0.3,3.1c0,0.3,0.2,0.6,0.5,0.6c0.5-0.3,1.2-1.4,2-2.8c1.5-2.6,3.1-6.1,3.7-7.7
		c0.2-0.3,0.5-0.5,0.8-0.5c0.2,0,0.3,0.2,0.5,0.3C72.8,60.6,73,60.9,72.8,61.1z M61.6,44.1c1.8-0.3,8.3,0.3,6.6,2.9
		c-1.4,2.1-5.1-0.5-6.4-1.5c-0.3-0.2-0.6-0.5-0.9-0.6C60.7,44.7,60.4,44.2,61.6,44.1z"/>
	<path class="st0" d="M73.4,28.1c2.1,0.2,6.1,1.1,6.6,1.8c0.8,0.9-4.3,41-1.2,31.1c3.1-9.8,5.4-15.8,11.3-14.2
		c6,1.5,6.7,6.4,4.9,15.8c-1.5,8.3-11.2,14.1-15,8.9c-0.9-1.2-1.2-2.9-0.9-4.3c0.5-2.3,1.7-4.1,2.5-5.1c0.3-0.3,0.8-0.3,0.9,0
		c0.2,0.2,0.2,0.5,0,0.6c-0.8,1.4-3.7,6.6-0.8,7.5c3.2,0.9,10.7-24.7,5.1-21.6c-0.5,0.2-0.8,0.6-1.1,0.9c-3.2,4.3-7.5,15.5-8.3,18.5
		c-0.8,3.2-4.3-0.8-5.5-6.4c-1.1-4.9-0.3-26.8,0-32.3C72,28.7,72.7,28.1,73.4,28.1z"/>
	<path class="st0" d="M117.5,63.5c-0.2,0.3-0.3,0.8-0.5,1.2c-0.9,2.1-2.1,4-4,5.4c-0.2,0.2-0.2,0.2-0.3,0.3c-3.8,2.8-7.2,2-9.2,0.9
		c-0.3-0.2-0.5-0.3-0.8-0.5l-0.2-0.2c0,0,0,0-0.2,0c-0.8-0.5-1.1-0.9-1.1-0.9l0,0c-0.6-0.6-1.2-1.2-1.7-2
		c-3.7-4.9-1.7-13.3-1.7-13.3s2.9-12.4,12.6-9.6c9.6,2.8,1.5,15.6-5.8,17.6c-0.5,0.5-0.8,2.1-0.5,3.7c1.1,5.1,4.1,4.9,6.7,3.4
		c0.8-0.5,1.4-0.9,2-1.4c1.4-1.2,2.5-2.6,3.1-4.3c0.2-0.3,0.2-0.5,0.3-0.6c0-0.2,0.2-0.2,0.2-0.3c0-0.2,0.2-0.2,0.2-0.2
		c0.2-0.2,0.5-0.3,0.6-0.2C117.5,62.8,117.7,63.2,117.5,63.5z M104.7,60.8c0,0,7.8-4.1,6.6-11.3c-0.2-0.9-1.4-1.1-1.8-0.3
		C108.2,51.1,106,54.9,104.7,60.8z"/>
	<path class="st0" d="M134.1,61.1c-0.2,0.5-0.5,1.4-0.9,2.3c-0.3,0.9-2.3,4.6-2.9,5.5c-1.1,1.5-2.1,3.1-3.1,3.8
		c-2.5,1.8-4.4,0.5-5.7-1.7c-1.2-2.1-2.6-5.4,0.5-15.6c0.5-1.5,0.6-1.7-1.4-2.3c-1.2-0.5-3.4-1.5-4.6-4c0-0.2-0.2-0.3-0.3-0.5
		c-0.3-0.5-0.5-0.8-0.6-1.2l-3.5,2.5c-0.5,0.3-0.9,0.2-1.2-0.3c-0.3-0.5-0.2-0.9,0.3-1.2l4.1-2.8c0-0.5,0-1.1,0-1.5l0,0
		c0-0.5,0-0.8,0-1.2c0,0,0.2-1.7,2-1.2c1.8,0.5,4.1,1.2,3.8,3.7c-0.5,2.5-0.9,6.1,4.1,7.2c5.1,1.1,3.2,3.5,2.1,7
		c-1.1,3.4-4.1,19.1,1.7,9.5l0.8-1.2c1.4-2.5,2.8-5.7,3.4-7c0.2-0.3,0.5-0.5,0.8-0.5C133.9,60.3,134.2,60.8,134.1,61.1z"/>
	<path class="st0" d="M156.7,42.4c-2.5,0.6-5.1,0.8-8,0.8c-2,0-4.1-0.2-6.3-0.3c-0.2,0.9-0.5,2-0.8,3.4l-0.3,1.4
		c-1.8,8.3-4.6,21.3-3.7,23.3h0.2c0.5-0.3,1.2-1.4,2-2.8c1.5-2.6,3.1-6.1,3.7-7.7c0.2-0.3,0.6-0.5,0.9-0.3c0.3,0.2,0.5,0.5,0.3,0.8
		c-0.3,0.6-0.6,1.7-1.2,2.9c-0.3,0.8-0.6,1.4-1.1,2.1c-0.5,0.9-0.9,1.8-1.4,2.8c-1.2,2.1-2.6,3.8-3.8,4.3c-0.3,0.2-0.8,0.2-1.1,0.2
		c-2.3-0.3-3.7-3.4-4.1-5.1c-0.2-0.8-0.2-2,0-4.3c0.3-3.2,1.1-8.4,2.8-16.5l0.3-1.4c0.3-1.2,0.6-2.6,0.9-4.1
		c-5.5-0.9-10.3-2-12.1-2.5c-0.5-0.2-0.8-0.6-0.6-1.1l0,0c0.2-0.5,0.6-0.8,1.1-0.6c1.8,0.5,6.6,1.7,12.1,2.5
		c0.3-1.4,0.6-2.8,0.9-4.1c0.2-0.6,0.8-0.9,1.4-0.8c1.7,0.8,4.7,2.5,4.1,5.7c4.7,0.5,9.5,0.5,13.3-0.5c0.5-0.2,0.9,0.2,1.1,0.6
		C157.5,41.8,157.2,42.2,156.7,42.4z"/>
	<path class="st0" d="M169.9,58.5c-0.3,0.9-0.9,2.5-1.8,4.4c0,0.2-0.2,0.2-0.2,0.3c-0.2,0.3-0.3,0.6-0.5,1.1c0,0.2-0.2,0.2-0.2,0.3
		c-0.6,1.2-1.4,2.1-2,2.9c-0.8,0.8-1.5,1.4-2,1.7c-0.8,8.1-3.1,18.1-8.1,19.5c-6.6,2-10.1,0.9-9.6-2.9c0.5-3.4,4.3-9.3,9.5-13.3
		c0.3-2.8,0.6-5.5,0.8-8c0.2-1.8,0.3-3.7,0.5-5.7c-1.2,3.2-3.2,7.2-5.4,6.9c-3.5-0.5-9.5-1.4-6.7-18.8c0,0-0.8-2.1,2.8-2
		c3.5,0.2,5.7,0.3,4.6,3.4c-0.9,3.1-2.3,19.1,1.4,13.2c2-3.4,3.5-8.6,4.6-12.7c0.2-1.5,0.5-2.9,0.8-4.4l0.2-0.6
		c0.2-0.6,0.8-1.1,1.5-0.9c2.1,0.3,6.7,1.2,6.3,3.7c-0.6,3.4-2.3,8.6-2.5,16.5c0,1.2,0,2.8-0.2,4.3c1.1-1.1,1.8-2,2.3-2.8
		c1.2-2.3,2.5-5.1,2.9-6.3c0.2-0.5,0.8-0.6,1.1-0.3C170.1,57.9,170.1,58.2,169.9,58.5z M154.9,74.1c-3.4,2.9-6.6,7.2-7,11.9
		c-0.3,4,3.2,1.7,5.1-2.8C153.7,81.7,154.3,78.2,154.9,74.1z"/>
	<path class="st0" d="M169.6,45.1c-0.3,0.2-0.6,0.2-0.9-0.2c-0.3-0.3-0.3-0.8,0-1.1c0.6-0.6,1.5-1.5,2-2.9c0,0-2-0.8-1.2-3.4
		c0.8-2.6,2.8-3.1,4-1.2C174.5,38.1,172.2,43.3,169.6,45.1z"/>
	<path class="st0" d="M196.7,52c-1.2-3.2-3.5-5.7-6.7-4c-3.4,1.8-8.1,18.8-2.6,24c5.5,5.2,10,1.2,13.3-10.7s3.8-34.5,3.8-34.5
		c-9.6-1.4-18.7,4.7-20.2,8.4c-1.1,2.9,1.7,5.4,2.9,6.3c0.3,0.2,0.3,0.6,0.2,0.9c-0.2,0.2-0.5,0.3-0.8,0.2c-1.1-0.5-4.1-2-4.6-6.4
		c-0.8-5.4,4-9.8,13.2-12.9c9.2-3.2,22.4-1.8,28.8-2.9c4-0.6,6.1-4.1,7.2-6.7c0.6-1.4,2.6-1.7,3.4-0.3c1.4,2.1,2.5,5.5-0.2,9.6
		c-4.6,7.5-22.5,3.7-22.5,3.7c0.2,13.3-4.3,34.2-7.8,40.6c-3.5,6.6-12.3,11.6-19.3,6.3c-6.9-5.4-5.2-23.6,2.9-27.1
		c6.9-2.9,9.3,3.1,10,4.9c0.2,0.3,0,0.6-0.3,0.8C197.3,52.5,196.9,52.3,196.7,52z"/>
	<path class="st0" d="M229.5,61.1c-0.3,0.9-1.2,2.9-2.1,5.1c-0.5,0.9-0.9,1.8-1.4,2.8c-1.2,2.1-2.6,3.8-3.8,4.3
		c-0.2,0-0.3,0.2-0.5,0.2l0,0c-0.6,0.2-1.4,0-1.8-0.3c-0.3-0.2-0.5-0.3-0.8-0.6c0,0,0,0-0.2-0.2c-0.2-0.2-0.3-0.3-0.5-0.5
		c-0.2-0.2-0.3-0.3-0.5-0.5c-0.3-0.3-0.5-0.6-0.8-0.9c-0.6-0.9-1.1-1.8-1.2-2.5c-0.2-0.3-0.2-0.6-0.3-0.9c-0.3-0.9-0.5-2.1-0.6-3.2
		c-0.6-4.9-0.2-11,1.1-14.9c0.3-0.9,1.2-1.5,2.1-1.2c2.1,0.6,5.4,1.7,4.9,3.7c-0.6,2.3-2,6.7-1.7,12.6c0,0.9,0.2,2,0.3,3.1
		c0,0.2,0,0.2,0,0.3c0.2,1.4,0.3,2.5,0.3,3.1c0,0.3,0.2,0.6,0.5,0.6c0.5-0.3,1.2-1.4,2-2.8c1.4-2.6,3.1-6.1,3.7-7.7
		c0.2-0.3,0.5-0.5,0.8-0.5c0.2,0,0.3,0.2,0.5,0.3C229.5,60.6,229.5,60.9,229.5,61.1z M218.3,44.1c1.8-0.3,8.3,0.3,6.6,2.9
		c-1.4,2.1-5.1-0.5-6.4-1.5c-0.3-0.2-0.6-0.5-0.9-0.6C217.4,44.7,217.1,44.2,218.3,44.1z"/>
	<path class="st0" d="M272.1,61.1c-0.3,0.9-1.2,2.9-2.1,5.1c-0.5,0.9-0.9,1.8-1.4,2.8c-1.2,2.1-2.6,3.8-3.8,4.3
		c-0.2,0-0.3,0.2-0.5,0.2l0,0c-0.6,0.2-1.4,0-1.8-0.3c-0.3-0.2-0.5-0.3-0.8-0.6c0,0,0,0-0.2-0.2c-0.2-0.2-0.3-0.3-0.5-0.5
		c-0.2-0.2-0.3-0.3-0.5-0.5c-0.3-0.3-0.5-0.6-0.8-0.9c-0.6-0.9-1.1-1.8-1.2-2.5c-0.2-0.3-0.2-0.6-0.3-0.9c-0.3-0.9-0.5-2.1-0.6-3.2
		c-0.2-1.7-0.3-3.5-0.2-5.4c0-0.5-0.6-0.6-0.8-0.2c-1.8,5.8-3.8,12.7-5.2,14.9c-0.2,0.3-0.6,0.6-0.9,0.8c-4.7,1.4-5.8-8-6.7-14.2
		c0-0.2-0.3-3.1-0.3-4.7c0-0.3-0.5-0.5-0.6-0.2c-2.1,6.4-4.7,16.2-6.3,17.9c-0.2,0.2-0.3,0.2-0.3,0.3c-5.1,1.8-7.5-13.5-7.5-19.6
		c0-2.5-0.2-4-0.5-4.9c-0.3-0.9,0.5-1.8,1.2-1.8c2.1,0.2,4.9,0.9,5.7,0.9c0.9,0.2,0,3.5,0.6,11.6c0.6,11.5,2,3.2,3.7-2.1
		c1.2-4,2.5-6.6,3.5-8.3l0.2-0.2c0.5-0.6,1.1-0.9,1.8-0.8l1.2,0.2c1.7,0.3,3.2,0.5,3.8,0.6c0.9,0.2,0,3.5,0.6,11.6
		c0.6,11.5,2,3.2,3.7-2.1c3.7-11.5,6.9-10.3,6.9-10.3s5.4,1.7,4.9,3.7c-0.6,2.3-2,6.7-1.7,12.6c0,0.9,0.2,2,0.3,3.1
		c0,0.2,0,0.2,0,0.3c0.2,1.4,0.3,2.5,0.3,3.1c0,0.3,0.2,0.6,0.5,0.6c0.5-0.3,1.2-1.4,2-2.8c1.5-2.6,3.1-6.1,3.7-7.7
		c0.2-0.3,0.5-0.5,0.8-0.5c0.2,0,0.3,0.2,0.5,0.3C272.1,60.6,272.1,60.9,272.1,61.1z"/>
	<path class="st0" d="M290,63.5c-0.2,0.3-0.3,0.8-0.5,1.2c-0.9,2.1-2.1,4-4,5.4c-0.2,0.2-0.2,0.2-0.3,0.3c-3.8,2.8-7.2,2-9.2,0.9
		c-0.3-0.2-0.5-0.3-0.8-0.5l-0.2-0.2c0,0,0,0-0.2,0c-0.8-0.5-1.1-0.9-1.1-0.9l0,0c-0.6-0.6-1.2-1.2-1.7-2
		c-3.7-4.9-1.7-13.3-1.7-13.3s2.9-12.4,12.6-9.6c9.6,2.8,1.5,15.6-5.8,17.6c-0.5,0.5-0.8,2.1-0.5,3.7c1.1,5.1,4.1,4.9,6.7,3.4
		c0.8-0.5,1.4-0.9,2-1.4c1.4-1.2,2.5-2.6,3.1-4.3c0.2-0.3,0.2-0.5,0.3-0.6c0-0.2,0.2-0.2,0.2-0.3c0-0.2,0.2-0.2,0.2-0.2
		c0.2-0.2,0.5-0.3,0.6-0.2C289.8,62.8,290,63.2,290,63.5z M277,60.8c0,0,7.8-4.1,6.6-11.3c-0.2-0.9-1.4-1.1-1.8-0.3
		C280.5,51.1,278.4,54.9,277,60.8z"/>
</g>
</svg>
