<?xml version="1.0" encoding="utf-8"?>
<!-- Generator: Adobe Illustrator 21.1.0, SVG Export Plug-In . SVG Version: 6.00 Build 0)  -->
<svg version="1.1" id="Layer_1" xmlns="http://www.w3.org/2000/svg" xmlns:xlink="http://www.w3.org/1999/xlink" x="0px" y="0px"
	 viewBox="0 0 850.4 850.4" style="enable-background:new 0 0 850.4 850.4;" xml:space="preserve">
<style type="text/css">
	.st0{fill:none;}
	.st1{fill:#3D3B3F;}
	.st2{font-family:'LettyhRegular';}
	.st3{font-size:151.1718px;}
	.st4{fill:url(#_x31__2_);}
	.st5{fill:url(#_x33__2_);}
	.st6{fill:url(#_x32__2_);}
	.st7{fill:url(#_x35__2_);}
	.st8{fill:url(#_x34__2_);}
	.st9{fill:url(#_x36__2_);}
	.st10{fill:url(#_x37__2_);}
	.st11{fill:url(#_x38__2_);}
	.st12{fill:url(#_x39__2_);}
	.st13{fill:url(#_x31_0_2_);}
	.st14{fill:#8C6B77;}
	.st15{fill:none;stroke:#655F69;stroke-width:0.5435;stroke-linecap:round;stroke-linejoin:round;stroke-miterlimit:10;}
	.st16{fill:#F7D1D1;stroke:#655F69;stroke-width:0.5435;stroke-linecap:round;stroke-linejoin:round;stroke-miterlimit:10;}
</style>
<rect x="25.6" y="397.7" class="st0" width="798.8" height="135.2"/>
<text transform="matrix(1 0 0 1 126.082 496.9414)" class="st1 st2 st3">Liberty&apos;Time</text>
<g>
	<g>
		<g id="parts_1_">
			<linearGradient id="_x31__2_" gradientUnits="userSpaceOnUse" x1="388.2106" y1="364.4592" x2="425.6493" y2="364.4592">
				<stop  offset="1.450321e-02" style="stop-color:#F7DEDC"/>
				<stop  offset="0.5109" style="stop-color:#F7D1D1"/>
				<stop  offset="0.9736" style="stop-color:#CEAAAE"/>
				<stop  offset="1" style="stop-color:#8C6B77"/>
			</linearGradient>
			<path id="_x31__1_" class="st4" d="M414.1,357c-2.1,0.2-11.6,0.9-15.3,1.5c-2.5,0.4-7.4,0.5-10.5,0.6c12.2,0.7,9.8,3.7,9.8,3.7
				c11.7,0.7,4.4,6,4.4,6s6.6-2.7,10.7-4c4.1-1.3,2.9,3.8,2.9,3.8c1.3,0.9-0.8,3.6-0.8,3.6s2.5-2.7,3.6-3.9
				c0.8-0.9,4.6-7.3,6.3-10.3l0.5-1.2C425.6,356.7,416.7,356.7,414.1,357z"/>
			<linearGradient id="_x33__2_" gradientUnits="userSpaceOnUse" x1="388.241" y1="338.6637" x2="425.3776" y2="338.6637">
				<stop  offset="1.450321e-02" style="stop-color:#F7DEDC"/>
				<stop  offset="0.5109" style="stop-color:#F7D1D1"/>
				<stop  offset="0.9736" style="stop-color:#CEAAAE"/>
				<stop  offset="1" style="stop-color:#8C6B77"/>
			</linearGradient>
			<path id="_x33__1_" class="st5" d="M425.4,356.4l-1.9-2l-5.7-4.7l-10-8.9l-6.8-7.8l-6.8-7.3l-4.9-4.7c0.2,0.4,1.4,2.5,2.9,4.2
				c1.6,1.9,1.6,4.5,1.6,4.5c0.6,2.6-2.6,2-2.6,2c2.1,0.6,5,4.5,3.9,6.8c-1.1,2.3-6.7,2.5-6.7,2.5c7.2,1.4,5.7,3,10.1,5.8
				c3.1,1.9,3.1,3.7,2.5,4.9l7.7,0.8l10.7,2.5L425.4,356.4z"/>
			<linearGradient id="_x32__2_" gradientUnits="userSpaceOnUse" x1="407.0571" y1="359.1425" x2="407.0571" y2="350.704">
				<stop  offset="2.544071e-02" style="stop-color:#8C6B77"/>
				<stop  offset="0.7928" style="stop-color:#A78C92"/>
				<stop  offset="1" style="stop-color:#BDA6A7"/>
			</linearGradient>
			<path id="_x32__1_" class="st6" d="M401.1,350.7c-0.1,0.9-0.7,1.6-1.2,2.1c-1,1.1-3.5,3.4-4.3,4.2c-0.7,0.7-6.3,1.9-7.5,2.1
				l1.9,0l11-0.9l5.7-0.8l4.9-0.4l7-0.3l5.7-0.1l1.4,0c0,0-2.7-1.5-4.8-2C419,354.1,409.3,350.8,401.1,350.7z"/>
			<linearGradient id="_x35__2_" gradientUnits="userSpaceOnUse" x1="413.2092" y1="330.2159" x2="426.0569" y2="330.2159">
				<stop  offset="1.450321e-02" style="stop-color:#F7DEDC"/>
				<stop  offset="0.5109" style="stop-color:#F7D1D1"/>
				<stop  offset="0.9736" style="stop-color:#CEAAAE"/>
				<stop  offset="1" style="stop-color:#8C6B77"/>
			</linearGradient>
			<path id="_x35__1_" class="st7" d="M425.8,332.4l0-8.3l0.1-13.3l-0.5-6.9c-0.2,2-0.8,5.7-1.7,7.1c-1.4,2-2.5,0.5-2.5,0.5
				c0.2,1.1-1.2,6.6-3.2,6.5c-2-0.1-4.1-4.3-4.1-4.3s1.1,2.5,1,4.6s0.5,6.1,0.9,8.5s-0.1,5.3-1,5.7c-0.3,0.1-0.7,0.3-1.6-0.1
				l4.7,8.6l6.6,13l1.6,2.5l-0.2-12.8L425.8,332.4z"/>
			<linearGradient id="_x34__2_" gradientUnits="userSpaceOnUse" x1="406.7616" y1="339.5177" x2="414.1674" y2="332.1119">
				<stop  offset="2.544071e-02" style="stop-color:#8C6B77"/>
				<stop  offset="0.7928" style="stop-color:#A78C92"/>
				<stop  offset="1" style="stop-color:#BDA6A7"/>
			</linearGradient>
			<path id="_x34__1_" class="st8" d="M408.2,328.9l-6.1-7.3c0,0,1.3,1.5,0.6,3.2c-0.6,1.7-4.1,0.5-4.1,0.5
				c-3.6,0.2-8.2-3.3-9.6-4.4l5.3,5.2l7.8,8.6l5.4,5.7l8.7,8l6.1,5.1l3.5,3.1c0,0-8.8-21.5-11.3-24
				C413.8,333,408.2,328.9,408.2,328.9z"/>
			<linearGradient id="_x36__2_" gradientUnits="userSpaceOnUse" x1="425.418" y1="329.3833" x2="437.0596" y2="329.3833">
				<stop  offset="2.544071e-02" style="stop-color:#8C6B77"/>
				<stop  offset="0.7928" style="stop-color:#A78C92"/>
				<stop  offset="1" style="stop-color:#BDA6A7"/>
			</linearGradient>
			<path id="_x36__1_" class="st9" d="M437.1,331.6c-0.4,0.2-1.4,0.6-1.8-0.4c-0.5-1.3-0.1-12.5,0.3-13.6c0.4-1.1,1.1-5.6,1.1-5.6
				c-2.3,4.9-4.4,2.8-4.4,2.8c-5-2.8-6.7-12.4-6.7-12.4s0,0.6-0.1,1.4v0l0.3,6.1l0,8.4l-0.2,11.2v7.4l0.4,19.5l2.6-3.8l8.3-16.6
				L437.1,331.6z"/>
			<linearGradient id="_x37__2_" gradientUnits="userSpaceOnUse" x1="426.306" y1="336.9804" x2="459.7062" y2="336.9804">
				<stop  offset="1.450321e-02" style="stop-color:#F7DEDC"/>
				<stop  offset="0.5109" style="stop-color:#F7D1D1"/>
				<stop  offset="0.9736" style="stop-color:#CEAAAE"/>
				<stop  offset="1" style="stop-color:#8C6B77"/>
			</linearGradient>
			<path id="_x37__1_" class="st10" d="M442.7,338.8l4.1-5.5l9.1-10.1l2.8-3.4c0.2-0.6,0.9-1.7,0.9-1.7s-2.2,2.2-3,3.2
				c-0.8,1-4.7,2-7.8,2.6s-2.6-4.2-2.6-4.2c-1,4.5-9.2,11.9-9.2,11.9s-0.8,0.5-1.4,0.3l-9.3,24.1l0.4-0.3l10.5-11L442.7,338.8z"/>
			<linearGradient id="_x38__2_" gradientUnits="userSpaceOnUse" x1="441.7822" y1="335.9399" x2="453.462" y2="347.6198">
				<stop  offset="2.544071e-02" style="stop-color:#8C6B77"/>
				<stop  offset="0.7928" style="stop-color:#A78C92"/>
				<stop  offset="1" style="stop-color:#BDA6A7"/>
			</linearGradient>
			<path id="_x38__1_" class="st11" d="M450.7,350.4c-0.9-1.6,0-4,0.9-4.7c1-0.7,5.8-5.8,6.6-6.9s4.8-2.9,4.3-3.1
				c-0.4-0.2-3,0.7-3.5,0.6c-0.5-0.1-1.8-0.9-2.2-0.9c-0.4,0-1.1-0.6-1.2-2.8c-0.1-2.1,2.4-4.6,2.4-4.6s-0.6,0.2-1.4,0.2
				c-0.7,0,0-2.8,0-3.2c-0.1-0.3,2.5-5.7,3.1-7.1l-3.4,5l-6.5,7l-8.5,10.1l-9.3,10.3l-5.7,5.4l0.1,0.4l9.3-2.8L450.7,350.4z"/>
			<linearGradient id="_x39__2_" gradientUnits="userSpaceOnUse" x1="426.6841" y1="353.3996" x2="462.9496" y2="353.3996">
				<stop  offset="1.450321e-02" style="stop-color:#F7DEDC"/>
				<stop  offset="0.5109" style="stop-color:#F7D1D1"/>
				<stop  offset="0.9736" style="stop-color:#CEAAAE"/>
				<stop  offset="1" style="stop-color:#8C6B77"/>
			</linearGradient>
			<path id="_x39__1_" class="st12" d="M455.9,355.9c-0.4-0.2-3.5-3.6-4.9-5.1c-0.4-0.5-0.6-1-0.7-1.6c-0.3,0.1-0.6,0.2-1,0.4
				c-1.1,0.5-7.9,2-11,2.5s-11,3.6-11.5,4.1s8-0.9,13.3,0.1c5.2,1,14.3,1.2,15.1,1.2c0.7,0,5.5-0.1,7.8-0.4
				C460,357.4,456.2,356.1,455.9,355.9z"/>
			<linearGradient id="_x31_0_2_" gradientUnits="userSpaceOnUse" x1="444.2994" y1="356.1279" x2="444.2994" y2="370.2198">
				<stop  offset="2.544071e-02" style="stop-color:#8C6B77"/>
				<stop  offset="0.7928" style="stop-color:#A78C92"/>
				<stop  offset="1" style="stop-color:#BDA6A7"/>
			</linearGradient>
			<path id="_x31_0_1_" class="st13" d="M431.5,367c0.9,0.7,3.1,3.6,3,3.2c-0.1-0.4-0.2-1.1-0.2-1.8s0.7-2.9,1-3.6
				c0.2-0.8,1-0.5,2.4-0.6s3.6,1.2,4.8,1.4c1.1,0.3,4.9,1.6,4.9,1.6c-1.7-1.4-1-2.8-1-2.8c1.5-2.8,4-2.4,4.8-2.4
				c0.9,0,1.9-1.6,3.2-2.4c1-0.6,6.1-1.8,8.5-2.3c-0.5,0-1,0.2-1.6,0.2c-3.1,0.2-7.5,0.3-9.5,0c-3.7-0.6-13.6-0.9-15.7-1.2
				s-10.6,0.5-10.6,0.5l0,0C426.3,358.9,430.7,366.3,431.5,367z"/>
		</g>
		<g id="lignes_internes_2_">
			<path class="st14" d="M425.7,356.9c0,0-0.1,0-0.1,0c-0.1,0-0.2-0.1-0.2-0.2c0-0.3-0.5-30-0.2-38.7c0.4-8.7,0.2-14,0.2-14.1
				c0-0.1,0.1,0,0.3,0c0.1,0,0.3,0.1,0.3,0.3c0,0,0.2,5.1-0.2,13.8c-0.3,8,0.1,33.6,0.2,38c2.4-2.4,13.4-13.5,18.3-20
				c3-4,6.5-7.7,9.3-10.8c2.3-2.5,4.1-4.5,4.6-5.3c0.1-0.1,1.6-2,1.5-1.9c-0.2,0.2-1.1,1.9-1.2,2c-0.6,0.9-2,2.9-4.4,5.5
				c-2.8,3-6.4,6.8-9.4,10.7c-5.5,7.3-18.7,20.4-18.8,20.5C425.8,356.8,425.7,356.9,425.7,356.9z"/>
			<path class="st14" d="M457.1,357.7c-4.2,0-9.7-0.3-15.5-0.9c-9.4-1-15.9,0-15.9,0c-0.1,0-0.2,0-0.2-0.1
				c-0.2-0.1-15.5-13.1-21.3-19.3c-1.6-1.8-3.3-3.6-4.9-5.3c-4-4.4-7.8-8.6-8.9-9.6c-0.1-0.1-1.4-1.7-1.3-1.6
				c0.1,0.1,1.3,1.2,1.5,1.3c1.2,0.9,4.9,4.9,9.1,9.5c1.6,1.8,3.3,3.6,4.9,5.3c5.5,6,19.9,18.1,21.2,19.2c0.9-0.1,7.2-0.9,16,0
				c10.1,1.1,17.6,1.2,20.6,0.9c0.1,0,0.8,0,0.6,0C461.6,357.4,459.6,357.7,457.1,357.7z"/>
			<path class="st14" d="M390.3,359.3C390.3,359.3,390.3,359.3,390.3,359.3c-0.2,0-2.1,0-2.1-0.2c0-0.1,1.9-0.4,2.1-0.4
				c0,0,0,0,0.1,0c1.6,0,10.1-0.6,15.4-1.4c5.3-0.8,19.8-1,20-1c0.1,0,0.3,0.1,0.3,0.3c0,0.2-0.1,0.3-0.3,0.3
				c-0.1,0-14.6,0.1-19.9,1C400.8,358.6,392.2,359.3,390.3,359.3z"/>
			<path class="st15" d="M425.7,356.6"/>
			<path class="st15" d="M423.9,360.6"/>
			<path class="st16" d="M427.7,361.1"/>
			<path class="st16" d="M425.7,356.6"/>
		</g>
		<path id="tige_1_" class="st14" d="M427.5,375.1c-0.3-0.7-1.6-18.5-1.6-18.5l-0.5,0.1c0,0-1.2,17.6-1.6,18.3
			c-0.3,0.7,1.7,0.7,1.7,0.7h0.2C425.8,375.8,427.8,375.8,427.5,375.1z"/>
	</g>
	<polygon class="st1" points="374.3,356.5 315.7,353.5 374.3,350.6 378.5,353.5 	"/>
	<polygon class="st1" points="475.7,356.5 534.3,353.5 475.7,350.6 471.5,353.5 	"/>
</g>
</svg>
