<svg id="mfg" xmlns="http://www.w3.org/2000/svg" viewBox="0 0 156.16 55.36"><defs><style>.cls-1{fill:#3d3b3f;}</style></defs><title>mfg</title><path class="cls-1" d="M69.11,127.26V85L51,117.43H47L28.8,85v42.21H21.92V72.7h7.31L49,108.12,68.83,72.7H76v54.55Z" transform="translate(-21.92 -72.32)"/><path class="cls-1" d="M89.06,127.26V72.7h36v6.17H96V97.11h24.5v5.7H96v24.45Z" transform="translate(-21.92 -72.32)"/><path class="cls-1" d="M172.38,119.9c-4.8,5.18-10.35,7.79-16.62,7.79a22,22,0,0,1-10.11-2.37,25.86,25.86,0,0,1-8-6.27,30,30,0,0,1-5.37-8.88,27.39,27.39,0,0,1-1.95-10.3,28.76,28.76,0,0,1,1.9-10.49,28.43,28.43,0,0,1,5.32-8.78,24.83,24.83,0,0,1,8.07-6,23.56,23.56,0,0,1,10.16-2.23c5.27,0,9.64,1.09,13,3.32a21.5,21.5,0,0,1,7.79,8.59l-5.32,3.7a16.4,16.4,0,0,0-6.55-7.07,18.38,18.38,0,0,0-9.16-2.33,16.11,16.11,0,0,0-7.55,1.8,18,18,0,0,0-5.75,4.75,23.7,23.7,0,0,0-3.7,6.84,25.61,25.61,0,0,0-1.33,8,22.58,22.58,0,0,0,1.47,8.26,22.15,22.15,0,0,0,4,6.84,18.88,18.88,0,0,0,6,4.65,16.79,16.79,0,0,0,7.55,1.71c5.93,0,11.3-2.85,16-8.59v-7.55H160.47v-5.22h17.62v27.21h-5.84V119.9Z" transform="translate(-21.92 -72.32)"/></svg>