<svg id="missions" xmlns="http://www.w3.org/2000/svg" viewBox="0 0 249.93 181.76"><defs><style>.cls-1{fill:#3d3b3f;}</style></defs><title>missions</title><path class="cls-1" d="M264.64,158.72H195.55L185,95.31a5.64,5.64,0,0,0-5.58-4.75h-.08a5.65,5.65,0,0,0-5.58,4.83l-10.42,73L150.88,44.55a5.66,5.66,0,0,0-5.5-5.08h-.08a5.74,5.74,0,0,0-5.67,4.92L123.3,158.89h-7.83l-10.25-35.75a5.7,5.7,0,0,0-5.67-4.08,5.6,5.6,0,0,0-5.33,4.5L86.8,158.81H26a5.67,5.67,0,0,0,0,11.33h65.5a5.79,5.79,0,0,0,5.58-4.5l3.67-17.42L105.8,166a5.72,5.72,0,0,0,5.5,4.17h17.08a5.74,5.74,0,0,0,5.67-4.83l10.42-73,12.17,123.84a5.66,5.66,0,0,0,5.5,5.08h.08a5.74,5.74,0,0,0,5.67-4.83l11.83-83,5.33,32a5.64,5.64,0,0,0,5.58,4.75h73.92a5.71,5.71,0,0,0,.08-11.42Z" transform="translate(-20.29 -39.47)"/></svg>