<svg id="mobility" xmlns="http://www.w3.org/2000/svg" viewBox="0 0 187.15 240.86"><defs><style>.cls-1{fill:#3d3b3f;}.cls-2{fill:#eee9e7;}</style></defs><title>mobility</title><path class="cls-1" d="M215.55,67.4a23.05,23.05,0,1,0-23-23.05A23,23,0,0,0,215.55,67.4Zm0-34.18a11.18,11.18,0,1,1-11.08,11.13A11.15,11.15,0,0,1,215.55,33.22Z" transform="translate(-57.25 -21.3)"/><path class="cls-1" d="M80.2,216.06a23.05,23.05,0,1,0,23,23.05A23,23,0,0,0,80.2,216.06Zm0,34.23a11.18,11.18,0,1,1,11.08-11.18A11.15,11.15,0,0,1,80.2,250.29Z" transform="translate(-57.25 -21.3)"/><path class="cls-2" d="M136.94,123.45a6,6,0,0,0,4.2,1.73,6,6,0,0,0,4.2-1.73,5.94,5.94,0,0,0,0-8.41L133,102.67l12.37-12.37a5.95,5.95,0,0,0-8.41-8.41L124.57,94.26,112.21,81.9a5.95,5.95,0,0,0-8.41,8.41l12.37,12.37L103.8,115a5.94,5.94,0,0,0,4.2,10.14,6,6,0,0,0,4.2-1.73l12.37-12.37Z" transform="translate(-57.25 -21.3)"/><path class="cls-2" d="M236.32,177.12a5.94,5.94,0,0,0-8.41,0l-12.37,12.37-12.37-12.37a5.95,5.95,0,1,0-8.41,8.41l12.37,12.37-12.37,12.37a5.94,5.94,0,0,0,4.2,10.14,6,6,0,0,0,4.2-1.73l12.37-12.37,12.37,12.37a6,6,0,0,0,4.2,1.73,6,6,0,0,0,4.2-1.73,5.94,5.94,0,0,0,0-8.41L224,197.9l12.37-12.37A5.94,5.94,0,0,0,236.32,177.12Z" transform="translate(-57.25 -21.3)"/><path class="cls-2" d="M166,207.75a5.94,5.94,0,0,0-8.41,0L145.2,220.11l-12.37-12.37a5.95,5.95,0,0,0-8.41,8.41l12.37,12.37-12.37,12.37a5.94,5.94,0,0,0,4.2,10.14,6,6,0,0,0,4.2-1.73l12.37-12.37,12.37,12.37a6,6,0,0,0,4.2,1.73,6,6,0,0,0,4.2-1.73,5.94,5.94,0,0,0,0-8.41l-12.37-12.37L166,216.16A6,6,0,0,0,166,207.75Z" transform="translate(-57.25 -21.3)"/><path class="cls-1" d="M127.54,163.13a5.94,5.94,0,1,0-5.94-5.94A6,6,0,0,0,127.54,163.13Z" transform="translate(-57.25 -21.3)"/><path class="cls-1" d="M83.56,180.64a6,6,0,0,0,3.26,1,5.94,5.94,0,1,0-3.26-1Z" transform="translate(-57.25 -21.3)"/><path class="cls-1" d="M102.11,155.26a5.92,5.92,0,0,0,2.42,11.33,6.07,6.07,0,0,0,2.42-.49,5.9,5.9,0,0,0,3-7.82A6,6,0,0,0,102.11,155.26Z" transform="translate(-57.25 -21.3)"/><circle class="cls-1" cx="93.79" cy="135.89" r="5.94"/><path class="cls-1" d="M80.2,203.84a5.91,5.91,0,1,0-4.2-1.73A6,6,0,0,0,80.2,203.84Z" transform="translate(-57.25 -21.3)"/><path class="cls-1" d="M242.65,105.49l-23-23a5.94,5.94,0,0,0-8.41,0l-23,23a5.95,5.95,0,0,0,8.41,8.41l12.81-12.81v15.34a35,35,0,0,1-35.07,34.78,5.94,5.94,0,1,0,0,11.87,46.86,46.86,0,0,0,46.95-46.65V101l12.81,12.81a6,6,0,0,0,4.2,1.73,6,6,0,0,0,4.2-1.73A5.88,5.88,0,0,0,242.65,105.49Z" transform="translate(-57.25 -21.3)"/></svg>