<svg id="outlook" xmlns="http://www.w3.org/2000/svg" viewBox="0 0 156.28 146.52"><defs><style>.cls-1{fill:#3d3b3f;}</style></defs><title>outlook</title><path class="cls-1" d="M173.26,56.39H109.77V32a4.89,4.89,0,0,0-5.8-4.79L25.83,41.83a4.88,4.88,0,0,0-4,4.79V154.06a4.87,4.87,0,0,0,4,4.79L104,173.51a4.59,4.59,0,0,0,.89.09,4.9,4.9,0,0,0,4.88-4.88V144.3h63.49a4.9,4.9,0,0,0,4.88-4.88V61.27A4.9,4.9,0,0,0,173.26,56.39ZM65.81,134.53c-13.46,0-24.42-13.16-24.42-29.3s11-29.3,24.42-29.3,24.42,13.16,24.42,29.3S79.27,134.53,65.81,134.53Zm44-68.37H159L129,89.47,109.77,77.26Zm58.61,68.37H109.77V88.83l16.91,10.74a4.86,4.86,0,0,0,5.62-.27l36.08-28.05Z" transform="translate(-21.86 -27.08)"/><ellipse class="cls-1" cx="43.95" cy="78.15" rx="14.65" ry="19.54"/></svg>