<svg id="paint" xmlns="http://www.w3.org/2000/svg" viewBox="0 0 136.48 137.51"><defs><style>.cls-1{fill:#3d3b3f;}</style></defs><title>paint</title><circle class="cls-1" cx="90.22" cy="63.38" r="2.69"/><path class="cls-1" d="M119.34,106.12a2.71,2.71,0,0,0-3.06,2.26c-.73,5-4.91,9.08-11.2,11-6.71,2.07-16,1.37-21.73-4.83a2.68,2.68,0,1,0-3.95,3.63,23.85,23.85,0,0,0,12.92,7.06,27.82,27.82,0,0,0,5.61.54,29.68,29.68,0,0,0,8.7-1.29c8.33-2.55,13.91-8.3,14.93-15.34A2.61,2.61,0,0,0,119.34,106.12Z" transform="translate(-28.66 -31.24)"/><path class="cls-1" d="M156.67,82.38c-4.89-5.67-11.63-9.32-19.74-10.8a151.14,151.14,0,0,0,19.23-15c7.28-6.93,9.72-11.82,7.68-15.34-2.26-3.92-8.81-3.89-20.6.08-10,3.36-22.37,9.21-34.94,16.49-2.18,1.26-4.32,2.52-6.42,3.84-1.56-4.4-.54-9.45,2.9-13.8A10.26,10.26,0,0,0,106.29,37c-1.72-3.6-5.53-5.75-10.15-5.75H96c-16.38,0-32.42,6.47-45.12,18.21A67.54,67.54,0,0,0,28.94,93.26a69,69,0,0,0,68.46,75.5,73.06,73.06,0,0,0,28.76-5.61,64.66,64.66,0,0,0,34.3-34.06,57,57,0,0,0,4.67-21.22C165.27,97.77,162.34,89,156.67,82.38ZM102.21,67.77c2.85-1.8,5.8-3.57,8.81-5.32a207.32,207.32,0,0,1,32.61-15.58c10.34-3.65,14.58-3.41,15.58-3-.08.62-.86,3.41-7.65,9.67a169.55,169.55,0,0,1-23.31,17.27c-3,1.88-6,3.73-9.16,5.53-4.3,2.47-8.59,4.81-12.78,6.93a39.14,39.14,0,0,0-3.22-7.09,40.1,40.1,0,0,0-4.38-6.18C99.82,69.3,101,68.52,102.21,67.77Zm-.81,17.94a136.07,136.07,0,0,1-20.09,7.92,13.26,13.26,0,0,0-1.53-4,13.13,13.13,0,0,0-2.52-3.17A138.69,138.69,0,0,1,94.18,73.06a33.78,33.78,0,0,1,4.22,5.85A35.62,35.62,0,0,1,101.4,85.71Zm58.34,22.1c-.38,26.72-24.31,55.57-62.34,55.57A63.59,63.59,0,0,1,34.28,93.72C37,62.24,64.69,36.62,96,36.62h.11c2.58,0,4.51,1,5.34,2.71a4.92,4.92,0,0,1-.89,5.18c-4.83,6.12-6,13.7-3.33,20-1.45.94-2.85,1.85-4.22,2.79h0c-8.54,5.77-15.77,11.5-20.55,16.33a13.4,13.4,0,0,0-11,1.07C55.82,88,48.49,103,47.09,106a2.66,2.66,0,0,0,.11,2.5,2.74,2.74,0,0,0,2.12,1.34c1.48.11,5.69.43,10.39.43,5.69,0,12.09-.46,15.15-2.2a13.45,13.45,0,0,0,6.42-8.78,141.5,141.5,0,0,0,24.52-9.64c5.21-2.55,10.58-5.4,16-8.51,2.71-1.58,5.43-3.2,8-4.83h.05C152.22,76.88,160,93,159.74,107.82ZM76.18,96.88a8,8,0,0,1-4,6.47C69.6,104.83,60.9,105,53.73,104.7c3.3-6.37,7.84-13.83,10.37-15.28a8.06,8.06,0,0,1,11,3A7.77,7.77,0,0,1,76.18,96.88Z" transform="translate(-28.66 -31.24)"/><path class="cls-1" d="M75.91,47.84A10.74,10.74,0,1,0,86.66,58.59,10.74,10.74,0,0,0,75.91,47.84Zm0,16.11a5.37,5.37,0,1,1,5.37-5.37A5.39,5.39,0,0,1,75.91,64Z" transform="translate(-28.66 -31.24)"/><path class="cls-1" d="M62.48,120a10.74,10.74,0,1,0,10.74,10.74A10.74,10.74,0,0,0,62.48,120Zm0,16.11a5.37,5.37,0,1,1,5.37-5.37A5.39,5.39,0,0,1,62.48,136.12Z" transform="translate(-28.66 -31.24)"/><path class="cls-1" d="M89.34,136.12a10.74,10.74,0,1,0,10.74,10.74A10.74,10.74,0,0,0,89.34,136.12Zm0,16.11a5.37,5.37,0,1,1,5.37-5.37A5.39,5.39,0,0,1,89.34,152.24Z" transform="translate(-28.66 -31.24)"/><path class="cls-1" d="M121.57,130.75a10.74,10.74,0,1,0,10.74,10.74A10.74,10.74,0,0,0,121.57,130.75Zm0,16.11a5.37,5.37,0,1,1,5.37-5.37A5.39,5.39,0,0,1,121.57,146.87Z" transform="translate(-28.66 -31.24)"/><path class="cls-1" d="M143.06,103.89a10.74,10.74,0,1,0,10.74,10.74A10.74,10.74,0,0,0,143.06,103.89Zm0,16.11a5.37,5.37,0,1,1,5.37-5.37A5.39,5.39,0,0,1,143.06,120Z" transform="translate(-28.66 -31.24)"/></svg>