<svg id="polyvalence" xmlns="http://www.w3.org/2000/svg" viewBox="0 0 237.71 238.13"><defs><style>.cls-1{fill:#3d3b3f;}.cls-2{fill:#eee9e7;}</style></defs><title>polyvalence</title><path class="cls-1" d="M142.79,75.5a3.4,3.4,0,0,1-3.45-3.45V25.57a3.4,3.4,0,0,1,3.45-3.45,3.14,3.14,0,0,1,3.45,3.45V72.06C145.82,74.24,144.48,75.5,142.79,75.5Z" transform="translate(-23.94 -22.13)"/><circle class="cls-1" cx="142.71" cy="90.56" r="4.29" transform="translate(-50.1 61.37) rotate(-30)"/><path class="cls-1" d="M142.79,75.5a3.4,3.4,0,0,1-3.45-3.45V25.57a3.4,3.4,0,0,1,3.45-3.45,3.14,3.14,0,0,1,3.45,3.45V72.06C145.82,74.24,144.48,75.5,142.79,75.5Z" transform="translate(-23.94 -22.13)"/><circle class="cls-2" cx="142.71" cy="90.56" r="4.29" transform="translate(-50.1 61.37) rotate(-30)"/><path class="cls-1" d="M162.63,57.43A3.15,3.15,0,0,1,160,56.17L140.19,27.76c-.84-1.26-.84-3.45.84-4.29,1.26-.84,3.45-.84,4.29.84l19.84,28.41c.84,1.26.84,3.45-.84,4.29C163.89,57.43,163.47,57.43,162.63,57.43Z" transform="translate(-23.94 -22.13)"/><path class="cls-1" d="M122.54,57.43a2.53,2.53,0,0,1-1.68-.42,3.37,3.37,0,0,1-.84-4.29l19.75-28.41a3.37,3.37,0,0,1,4.29-.84,3.37,3.37,0,0,1,.84,4.29L125.06,56.17Q124.55,57.43,122.54,57.43Z" transform="translate(-23.94 -22.13)"/><path class="cls-1" d="M114,94.08a3.15,3.15,0,0,1-2.61-1.26L91.52,64.41c-.84-1.26-.84-3.45.84-4.29,1.26-.84,3.45-.84,4.29.84l19.84,28.41c.84,1.26.84,3.45-.84,4.29C115.22,93.58,114.38,94.08,114,94.08Z" transform="translate(-23.94 -22.13)"/><path class="cls-1" d="M73.87,94.08a2.53,2.53,0,0,1-1.68-.42,3.37,3.37,0,0,1-.84-4.29L91.18,61a3.09,3.09,0,0,1,5.13,3.45L76.47,92.73A4.83,4.83,0,0,1,73.87,94.08Z" transform="translate(-23.94 -22.13)"/><path class="cls-1" d="M142.79,260.26a3.4,3.4,0,0,1-3.45-3.45V210.33a3.4,3.4,0,0,1,3.45-3.45,3.14,3.14,0,0,1,3.45,3.45v46.48C145.82,258.58,144.48,260.26,142.79,260.26Z" transform="translate(-23.94 -22.13)"/><circle class="cls-1" cx="142.83" cy="192.07" r="4.29" transform="translate(-118.87 197.6) rotate(-60)"/><path class="cls-1" d="M142.79,260.26a3.4,3.4,0,0,1-3.45-3.45V210.33a3.4,3.4,0,0,1,3.45-3.45,3.14,3.14,0,0,1,3.45,3.45v46.48C145.82,258.58,144.48,260.26,142.79,260.26Z" transform="translate(-23.94 -22.13)"/><circle class="cls-2" cx="142.83" cy="192.07" r="4.29" transform="translate(-118.87 197.6) rotate(-60)"/><path class="cls-1" d="M142.79,260.26a2.53,2.53,0,0,1-1.68-.42,3.37,3.37,0,0,1-.84-4.29l19.84-28.41a3.09,3.09,0,0,1,5.13,3.45L145.4,259A3.15,3.15,0,0,1,142.79,260.26Z" transform="translate(-23.94 -22.13)"/><path class="cls-1" d="M142.79,260.26a3.15,3.15,0,0,1-2.61-1.26l-19.75-28.41c-.84-1.26-.84-3.45.84-4.29,1.26-.84,3.45-.84,4.29.84l19.84,28.41c.84,1.26.84,3.45-.84,4.29C144.06,259.84,143.21,260.26,142.79,260.26Z" transform="translate(-23.94 -22.13)"/><path class="cls-1" d="M200,223.69a2.53,2.53,0,0,1-1.68-.42,3.37,3.37,0,0,1-.84-4.29l19.84-28.41a3.09,3.09,0,1,1,5.13,3.45l-19.84,28.41A4,4,0,0,1,200,223.69Z" transform="translate(-23.94 -22.13)"/><path class="cls-1" d="M200,223.69a3.15,3.15,0,0,1-2.61-1.26L177.59,194c-.84-1.26-.84-3.45.84-4.29s3.45-.84,4.29.84L202.56,219c.84,1.26.84,3.45-.84,4.29C201.38,223.69,200.54,223.69,200,223.69Z" transform="translate(-23.94 -22.13)"/><path class="cls-1" d="M73.87,144.43H27.39A3.4,3.4,0,0,1,23.94,141a3.14,3.14,0,0,1,3.45-3.45H73.87A3.4,3.4,0,0,1,77.31,141,3.35,3.35,0,0,1,73.87,144.43Z" transform="translate(-23.94 -22.13)"/><circle class="cls-1" cx="91.95" cy="141.42" r="4.29" transform="translate(-82.33 42.8) rotate(-30)"/><path class="cls-1" d="M73.87,144.43H27.39A3.4,3.4,0,0,1,23.94,141a3.14,3.14,0,0,1,3.45-3.45H73.87A3.4,3.4,0,0,1,77.31,141,3.35,3.35,0,0,1,73.87,144.43Z" transform="translate(-23.94 -22.13)"/><circle class="cls-2" cx="91.95" cy="141.42" r="4.29" transform="translate(-82.33 42.8) rotate(-30)"/><path class="cls-1" d="M27.39,144.43a3.15,3.15,0,0,1-2.61-1.26c-.84-1.26-.84-3.45.84-4.29L54,119c1.26-.84,3.45-.84,4.29.84.84,1.26.84,3.45-.84,4.29L29.07,144A2.53,2.53,0,0,1,27.39,144.43Z" transform="translate(-23.94 -22.13)"/><path class="cls-1" d="M55.8,164.69a2.53,2.53,0,0,1-1.68-.42L25.7,144.43a3.37,3.37,0,0,1-.84-4.29,3.37,3.37,0,0,1,4.29-.84l28.41,19.84a3.37,3.37,0,0,1,.84,4.29A3.8,3.8,0,0,1,55.8,164.69Z" transform="translate(-23.94 -22.13)"/><path class="cls-1" d="M66.14,198.65a3.15,3.15,0,0,1-2.61-1.26c-.84-1.26-.84-3.45.84-4.29l28.41-19.84c1.26-.84,3.45-.84,4.29.84.84,1.26.84,3.45-.84,4.29L67.82,198.22C67.4,198.22,66.56,198.65,66.14,198.65Z" transform="translate(-23.94 -22.13)"/><path class="cls-1" d="M94.55,218.48a2.53,2.53,0,0,1-1.68-.42L64.45,198.22a3.51,3.51,0,0,1-1.26-3.87,3.43,3.43,0,0,1,3.45-2.19c.42,0,39.59,4.71,61.61-14.63,9.92-8.57,15-20.68,15.47-36.14.42-17.23,6.05-31,17.65-40.94,24.54-21.1,65.9-16,67.58-15.47a2.8,2.8,0,0,1,2.61,2.61c0,1.34,0,2.61-1.26,3.45l-28.41,19.84c-1.26.84-3.45.84-4.29-.84s-.84-3.45.84-4.29l21.1-14.63c-13.36-.42-37.91,1.26-53.38,14.63-9.92,8.57-15,20.68-15,35.72-.42,17.23-6.05,31.44-17.65,40.94C116.65,197,92.53,199.23,78.32,199.23L97.74,212.6a3.37,3.37,0,0,1,.84,4.29C96.73,218.06,95.89,218.48,94.55,218.48Z" transform="translate(-23.94 -22.13)"/><path class="cls-1" d="M258.2,144.43H211.72a3.4,3.4,0,0,1-3.45-3.45,3.14,3.14,0,0,1,3.45-3.45H258.2a3.4,3.4,0,0,1,3.45,3.45A3.35,3.35,0,0,1,258.2,144.43Z" transform="translate(-23.94 -22.13)"/><circle class="cls-1" cx="193.59" cy="141.29" r="4.29" transform="translate(-49.51 216.16) rotate(-60)"/><path class="cls-1" d="M258.2,144.43H211.72a3.4,3.4,0,0,1-3.45-3.45,3.14,3.14,0,0,1,3.45-3.45H258.2a3.4,3.4,0,0,1,3.45,3.45A3.35,3.35,0,0,1,258.2,144.43Z" transform="translate(-23.94 -22.13)"/><circle class="cls-2" cx="193.59" cy="141.29" r="4.29" transform="translate(-49.51 216.16) rotate(-60)"/><path class="cls-1" d="M258.2,144.43a2.53,2.53,0,0,1-1.68-.42L228,124.17a3.09,3.09,0,1,1,3.45-5.13l28.41,19.84a3.37,3.37,0,0,1,.84,4.29C260.39,144,259,144.43,258.2,144.43Z" transform="translate(-23.94 -22.13)"/><path class="cls-1" d="M229.79,164.69a3.15,3.15,0,0,1-2.61-1.26c-.84-1.26-.84-3.45.84-4.29l28.41-19.84c1.26-.84,3.45-.84,4.29.84.84,1.26.84,3.45-.84,4.29l-28.41,19.84C231.05,164.27,230.21,164.69,229.79,164.69Z" transform="translate(-23.94 -22.13)"/><path class="cls-1" d="M228,91.47a2.53,2.53,0,0,1-1.68-.42L197.94,71.22a3.09,3.09,0,1,1,3.45-5.13l28.41,19.84a3.37,3.37,0,0,1,.84,4.29A3,3,0,0,1,228,91.47Z" transform="translate(-23.94 -22.13)"/><path class="cls-1" d="M201,225.8a3.15,3.15,0,0,1-2.61-1.26l-19.84-28.41c-.84-1.26-.84-3.45.84-4.29s3.45-.84,4.29.84l14.63,21.1c.42-18.49-2.61-59.43-38.33-67.58a59.68,59.68,0,0,0-12.52-1.26,54.88,54.88,0,0,1-17.65-2.61c-19.84-6.05-32.7-21.94-37.91-46.48a130.93,130.93,0,0,1-2.19-23.7L76.31,91.56a3.09,3.09,0,0,1-5.13-3.45L91,59.7a3.51,3.51,0,0,1,3.87-1.26,4,4,0,0,1,2.19,3.45c0,.42-7.31,62,34.88,74.47a63.19,63.19,0,0,0,16,2.19,49.59,49.59,0,0,1,13.79,1.68c51.69,11.6,42.62,82.71,42.62,83.55a2.8,2.8,0,0,1-2.61,2.61C201.38,225.8,201,225.8,201,225.8Z" transform="translate(-23.94 -22.13)"/></svg>