<svg id="powerpoint" xmlns="http://www.w3.org/2000/svg" viewBox="0 0 156.55 150.04"><defs><style>.cls-1{fill:#3d3b3f;}</style></defs><title>powerpoint</title><path class="cls-1" d="M136,57.11a3.28,3.28,0,0,0-3.27,3.27V79.95A3.28,3.28,0,0,0,136,83.22h19.57a3.28,3.28,0,0,0,3.27-3.27A22.82,22.82,0,0,0,136,57.11Z" transform="translate(-21.86 -24.46)"/><path class="cls-1" d="M136,89.7a9.77,9.77,0,0,1-9.78-9.78V64A22.78,22.78,0,1,0,152,89.7Z" transform="translate(-21.86 -24.46)"/><path class="cls-1" d="M175.14,161.47H109.92a3.27,3.27,0,0,1,0-6.54h62V44.05h-62a3.27,3.27,0,1,1,0-6.54h65.22a3.28,3.28,0,0,1,3.27,3.27V158.19A3.28,3.28,0,0,1,175.14,161.47Z" transform="translate(-21.86 -24.46)"/><path class="cls-1" d="M155.57,141.9H109.92a3.27,3.27,0,0,1,0-6.54h45.65a3.27,3.27,0,1,1,0,6.54Z" transform="translate(-21.86 -24.46)"/><path class="cls-1" d="M155.57,122.33H109.92a3.27,3.27,0,0,1,0-6.54h45.65a3.27,3.27,0,1,1,0,6.54Z" transform="translate(-21.86 -24.46)"/><path class="cls-1" d="M64.27,76.68H54.48v26.08h9.78A9.77,9.77,0,0,0,74.05,93V86.46A9.77,9.77,0,0,0,64.27,76.68Z" transform="translate(-21.86 -24.46)"/><path class="cls-1" d="M112,25.18a3.2,3.2,0,0,0-2.75-.64L24.4,44.11a3.27,3.27,0,0,0-2.54,3.21V158.19a3.23,3.23,0,0,0,2.75,3.21l84.79,13.06a3.28,3.28,0,0,0,3.73-2.72,2.63,2.63,0,0,0,0-.49V27.75A3.18,3.18,0,0,0,112,25.18ZM80.57,92.94a16.29,16.29,0,0,1-16.3,16.3H54.48v16.3a3.27,3.27,0,1,1-6.54,0V73.4a3.28,3.28,0,0,1,3.27-3.27H64.27a16.29,16.29,0,0,1,16.3,16.3Z" transform="translate(-21.86 -24.46)"/></svg>