<svg id="publisher" xmlns="http://www.w3.org/2000/svg" viewBox="0 0 140.69 140.51"><defs><style>.cls-1{fill:#3c3c3c;}</style></defs><title>publisher</title><path class="cls-1" d="M118.35,62.76h29.89c-.5-.58-.85-1-1.24-1.36-4.35-4.39-8.73-8.73-13.08-13.12-1.67-1.71-2.1-3.53-1.24-5.24a4,4,0,0,1,3.84-2.29c7.26,0,14.55,0,21.81,0a4.1,4.1,0,0,1,4.19,4.19c0,2.33-1.79,4-4.35,4-3.8,0-7.61,0-11.76,0,.54.62.82,1,1.16,1.32,4.31,4.35,8.62,8.69,13,13a6.16,6.16,0,0,1,2,4.74q-.06,43.08,0,86.16c0,3.73-1.47,5.2-5.24,5.2H118.35v6.05c0,3.69-2,5.32-5.63,4.77q-26.66-4-53.37-8c-11.18-1.67-22.32-3.34-33.49-5-2.72-.43-4-2-4-4.93V48.63c0-4.08.93-5.24,4.89-5.86q26.9-4.08,53.83-8.07c10.75-1.63,21.5-3.22,32.25-4.85,3.45-.54,5.51,1.09,5.51,4.58,0,8.73,0,17.47,0,26.2Zm35.86,8.42H118.46V84.92h17.19c3.26,0,4.77,1.55,4.77,4.85v20.57c0,3.34-1.55,4.85-4.93,4.85H120.13c-.54,0-1.09,0-1.67.08v13.78h17.15c2.45,0,4,1,4.58,2.83.93,2.87-1.09,5.39-4.42,5.43-5.16,0-10.36,0-15.52,0H118.5v13.74h35.71ZM61,106.85h2.37c2.87,0,5.74.08,8.62-.16A17.26,17.26,0,0,0,87.45,89.93c.23-8.66-6.13-16.53-14.59-17.47-4.85-.54-9.82-.27-14.71-.35-4,0-5.39,1.36-5.39,5.36v45.18a11.79,11.79,0,0,0,.16,2,4,4,0,0,0,8,0,20.46,20.46,0,0,0,.16-2.17C61,117.37,61,112.25,61,106.85Z" transform="translate(-21.86 -29.74)"/><path class="cls-1" d="M61.06,98.51V80.15c3.84.16,7.61,0,11.29.58,4.27.7,7.26,5.12,6.87,9.24a9,9,0,0,1-8.34,8.5C67.66,98.66,64.44,98.51,61.06,98.51Z" transform="translate(-21.86 -29.74)"/></svg>