<svg id="reactivity" xmlns="http://www.w3.org/2000/svg" viewBox="0 0 192.21 240.42"><defs><style>.cls-1{fill:#3d3b3f;}.cls-2{fill:#eee9e7;}</style></defs><title>reactivity</title><path class="cls-1" d="M127.79,42.11c3-13.2,13.2-19.53,22.86-20,11.7-.43,20.18,6.33,24.79,20h10.3c3.65,0,7.08.75,10,3.22a5.38,5.38,0,0,0,3.22.86c8.48.11,17-.11,25.44.11,13.42.43,23.29,10.84,23.29,24.47V237.65c0,14.49-10.41,24.9-24.79,24.9H80.14c-14.27,0-24.68-10.41-24.68-24.68V71c0-14.06,9.77-24.25,23.83-24.68,8.26-.21,16.63,0,24.9-.11a5.59,5.59,0,0,0,3.22-.86c2.9-2.36,6.12-3.11,9.77-3.22Zm95.84,160.34V76.56c0-5.58-.75-6.22-6.33-6.22h-14.7c-1,0-1.93.11-2.79.11-1.29,7.51-5.58,11.7-12,11.7H115.34A11.59,11.59,0,0,1,104,72.91c-.21-.86-.43-1.72-.64-2.68h-18c-4.72,0-5.69,1-5.69,5.69V232.61c0,4.72,1.07,5.8,5.8,5.8H187.67V212c0-6.65,3-9.66,9.66-9.66C205.81,202.45,214.5,202.45,223.63,202.45ZM103.32,54.35c-8.91,0-17.6-.21-26.19.11-2.36.11-4.83,1.4-6.87,2.68-5.47,3.65-6.87,9.12-6.87,15.35V235.83c0,1.07.11,2.15.11,3.22.75,9.23,7.19,15.35,16.42,15.35H223.2c9.66,0,16.53-6.87,16.53-16.63V70.88c0-10-6.65-16.74-16.53-16.74H202.27a23.08,23.08,0,0,0-2.47.21c0,2,.11,3.76,0,5.58s.54,2.36,2.25,2.36c5.58-.11,11.05,0,16.63,0,8.16,0,13.09,4.72,13.09,12.88V202.34a13.56,13.56,0,0,1-4.29,10c-10,9.87-20,19.75-29.73,29.84a13.73,13.73,0,0,1-10.2,4.4q-51.51,0-103-.11a15.75,15.75,0,0,1-7.3-1.93c-4.29-2.36-5.69-6.55-5.69-11.38V74.1c.43-7,5.37-11.7,12.34-11.81h19.53C103.32,59.5,103.32,57,103.32,54.35ZM151.4,74.2h35.09c3.76,0,5-1.29,5-4.94v-14c0-3.76-1.4-5-5.26-5.15H173.72c-5,0-5.58-.54-6.22-5.47C166.32,36,159.56,30,151.08,30.2S136.16,37,135.62,45.65c-.21,3.11-1.5,4.4-4.72,4.4H116.73c-3.65,0-5,1.5-5,5V68.73c0,4,1.29,5.26,5.26,5.26C128.33,74.2,139.81,74.2,151.4,74.2Zm44.32,157.33,21.14-20.82H195.72C195.72,218,195.72,225,195.72,231.54Z" transform="translate(-55.45 -22.13)"/><path class="cls-2" d="M107.61,158.45H119.1c4.94.11,8.26,3.22,8.37,8.16.11,7.83.11,15.78,0,23.61a7.69,7.69,0,0,1-7.94,8c-8,.21-16.1.11-24.15,0-4.51-.11-7.73-3-7.83-7.51-.21-8.26-.21-16.63,0-24.9.11-4.51,3.54-7.41,8.26-7.41Zm-12,8v23.72h23.72V166.5Z" transform="translate(-55.45 -22.13)"/><path class="cls-1" d="M95.48,110.26v23.83h23.93c0-1.07-.11-2.36,0-3.54.21-2.68,1.93-4.4,4.19-4.29s3.76,1.82,3.76,4.29c0,1.29.11,2.68,0,4a7.77,7.77,0,0,1-7.51,7.62c-8.26.11-16.63.11-24.9,0a7.47,7.47,0,0,1-7.41-7.62c-.11-8.26-.11-16.42,0-24.68a7.39,7.39,0,0,1,6.65-7.51,111.58,111.58,0,0,1,13.42-.21,3.83,3.83,0,0,1,3.86,4.29c-.11,2.25-1.72,3.65-4.4,3.65C103.21,110.26,99.46,110.26,95.48,110.26Z" transform="translate(-55.45 -22.13)"/><path class="cls-1" d="M110.83,120.35c5.15-7.19,10-14.06,14.92-20.82.86-1.18,1.61-2.36,2.47-3.43,1.61-1.93,3.86-2.36,5.69-1.07a3.86,3.86,0,0,1,.75,5.69c-6.55,9.34-13.2,18.67-20,27.9a4,4,0,0,1-6.22.54c-2.68-2.58-5.26-5.15-7.73-7.83a3.86,3.86,0,0,1,0-5.69c1.61-1.61,3.86-1.61,5.69.21A59.21,59.21,0,0,1,110.83,120.35Z" transform="translate(-55.45 -22.13)"/><path class="cls-1" d="M159.34,134.3h-19c-2.9,0-4.72-1.5-4.72-3.86s1.82-4.08,4.61-4.08h38.85c2.68,0,4.4,1.61,4.51,4s-1.72,4-4.61,4Z" transform="translate(-55.45 -22.13)"/><path class="cls-2" d="M159.66,182.49h19c3,0,4.72,1.4,4.83,3.76.11,2.58-1.61,4.08-4.83,4.08H140.35c-3.11,0-4.94-1.61-4.83-4.08s1.82-3.76,4.83-3.76Z" transform="translate(-55.45 -22.13)"/><path class="cls-2" d="M193.58,174.44H176.19c-1.93,0-3.76-.64-4.19-2.58a4,4,0,0,1,4.08-5.37q17.55-.16,35.09,0c2.79,0,4.4,1.5,4.4,3.86s-1.61,4.08-4.61,4.08C205.17,174.55,199.37,174.44,193.58,174.44Z" transform="translate(-55.45 -22.13)"/><path class="cls-1" d="M193.47,118.31H176.62c-3.22,0-5-1.4-5-3.86s1.82-4.19,5.15-4.19h35c2.47.32,4,2,3.76,4.29s-1.61,3.65-4.19,3.65c-5.9.11-11.81.11-17.82.11Z" transform="translate(-55.45 -22.13)"/><path class="cls-1" d="M149.57,118.31h-9.66c-2.68,0-4.4-1.72-4.4-4a3.89,3.89,0,0,1,4.19-4c6.55-.11,13.09-.11,19.53,0a4,4,0,0,1,4.29,4.19c-.11,2.36-1.72,3.76-4.51,3.86C155.8,118.31,152.69,118.31,149.57,118.31Z" transform="translate(-55.45 -22.13)"/><path class="cls-2" d="M149.47,166.39c3.22,0,6.44-.11,9.66,0,2.79.11,4.4,1.61,4.4,4s-1.72,4-4.4,4q-9.5.16-19,0c-2.9,0-4.61-1.72-4.51-4.19.11-2.25,1.82-3.76,4.61-3.86C143.24,166.39,146.36,166.39,149.47,166.39Z" transform="translate(-55.45 -22.13)"/><path class="cls-2" d="M203.56,190.43c-2.58,0-5.15.11-7.73,0s-4.19-1.72-4.19-4,1.61-3.86,4.19-3.86q7.89-.16,15.78,0c2.47,0,4,1.5,4,3.76s-1.4,4-4,4.08Z" transform="translate(-55.45 -22.13)"/><path class="cls-1" d="M203.66,134.3h-7.73c-2.58,0-4.19-1.61-4.19-3.86a3.94,3.94,0,0,1,4.08-4.08q7.89-.16,15.78,0a3.8,3.8,0,0,1,4.08,4c0,2.25-1.61,3.86-4.19,3.86S206.24,134.3,203.66,134.3Z" transform="translate(-55.45 -22.13)"/><path class="cls-1" d="M151.4,66.26H132.62c-3.22,0-5.26-1.61-5.15-4.08s1.93-4,5-4h38.1c3.54,0,5.47,2.25,4.61,5.15-.64,2.25-2.47,2.9-4.61,2.9Z" transform="translate(-55.45 -22.13)"/></svg>