<svg id="word" xmlns="http://www.w3.org/2000/svg" viewBox="0 0 156.28 149.78"><defs><style>.cls-1{fill:#3d3b3f;}</style></defs><title>word</title><path class="cls-1" d="M174.88,161.88H109.77a3.27,3.27,0,1,1,0-6.53h61.87V44.67H109.77a3.27,3.27,0,1,1,0-6.53h65.11a3.27,3.27,0,0,1,3.27,3.27V158.61A3.27,3.27,0,0,1,174.88,161.88Z" transform="translate(-21.86 -25.11)"/><path class="cls-1" d="M111.81,25.83a3.2,3.2,0,0,0-2.75-.64L24.39,44.73a3.27,3.27,0,0,0-2.53,3.21V158.61a3.22,3.22,0,0,0,2.75,3.21l84.64,13a3.27,3.27,0,0,0,3.72-2.72,2.63,2.63,0,0,0,0-.49V28.4A3.17,3.17,0,0,0,111.81,25.83ZM93.32,81.42,80.28,127a3.13,3.13,0,0,1-3.08,2.32A3.24,3.24,0,0,1,74.09,127L64.2,92.31,54.31,127A3.39,3.39,0,0,1,48,127L35,81.39a3.25,3.25,0,0,1,6.2-2c0,.06,0,.12.06.18l9.89,34.61,9.89-34.61a3.39,3.39,0,0,1,6.26,0l9.89,34.64,9.89-34.61A3.21,3.21,0,0,1,91,77.36s.06,0,.06,0A3.24,3.24,0,0,1,93.32,81.42Z" transform="translate(-21.86 -25.11)"/><path class="cls-1" d="M161.87,64.2h-52.1a3.27,3.27,0,1,1,0-6.53h52.1a3.27,3.27,0,1,1,0,6.53Z" transform="translate(-21.86 -25.11)"/><path class="cls-1" d="M161.87,83.74h-52.1a3.27,3.27,0,1,1,0-6.53h52.1a3.27,3.27,0,1,1,0,6.53Z" transform="translate(-21.86 -25.11)"/><path class="cls-1" d="M161.87,103.27h-52.1a3.27,3.27,0,1,1,0-6.53h52.1a3.27,3.27,0,1,1,0,6.53Z" transform="translate(-21.86 -25.11)"/><path class="cls-1" d="M161.87,122.81h-52.1a3.27,3.27,0,1,1,0-6.53h52.1a3.27,3.27,0,0,1,0,6.53Z" transform="translate(-21.86 -25.11)"/><path class="cls-1" d="M161.87,142.34h-52.1a3.27,3.27,0,1,1,0-6.53h52.1a3.27,3.27,0,1,1,0,6.53Z" transform="translate(-21.86 -25.11)"/></svg>